<svg height="960" viewBox="0 0 960 960" width="960" xmlns="http://www.w3.org/2000/svg"><path d="m682.365277 156.294166c39.426364.89511 75.486206 5.066587 106.956731 11.557753 24.052879 4.961189 44.522283 11.185113 55.094459 16.407146 39.366643 19.444805 66.853195 51.541094 84.625862 92.0368 6.633879 15.115549 11.677381 30.873926 15.536579 47.344559 2.785392 11.887753 4.620782 22.405684 6.483277 35.533206l.311498 2.230962c.122508.891061.242251 1.803827.359451 2.739105l.019043.154401.205799 1.695748.017677.147962c.035948.305725.071654.613748.107122.924088l.015424.137051.200189 1.80682.014372.131713c.034679.322763.069127.647914.103346.97547l.012607.122508.19429 1.916892.011786.118027c.03342.339769.066617.682001.099593 1.026709l.010387.110187.186337 2.006381.018532.205289.180579 2.059597.016415.192572.185802 2.245042c.030529.379475.060848.761539.097734 1.234018l.172108 2.262779.012239.16546.173478 2.414237c.0285.407913.056795.818478.089966 1.307483l.161471 2.443844.009232.143652.156246 2.501581.008268.136111.151975 2.574215.007415.129144.147663 2.646631.006657.122695.143315 2.718851.005981.116714.142258 2.858388c.023319.4822.046441.967152.071867 1.508878l.132815 2.909477.004592.103533.132016 3.069207.127147 3.136396.11878 3.108947.004138.112461.170157 4.808207.0043.127245.159968 4.967601.003099.100133.102984 3.470506.098344 3.542539.093918 3.624485.129277 5.446211.002253.10023.120594 5.684246.074837 3.89263.103231 5.956552.092478 6.097075.055872 4.155443.051332 4.237031.067987 6.461756.039584 4.405821.0505 6.720589.027857 4.568985.02321 4.640241.018551 4.709257.013906 4.7862.012103 7.291019.002254 4.956477-.005298 7.536449-.001897 1.27193-.002196.978267.036521 2.46488c1.147585 94.850865-19.993971 164.033278-68.335524 206.855176l-1.488345 1.30264c-29.026348 25.100552-64.798574 40.653476-107.316116 49.411088-30.340931 6.249517-58.35733 8.541966-103.59665 9.991958l-4.668584.144569-6.839949.198199-11.047764.309048-4.284633.124816-4.240964.131186c-.714018.022918-1.411489.04578-2.063653.067623l-2.066335.070851c-1.010424.035498-2.014752.069234-3.076345.103194l-2.94172.089534c-.47855.013807-.955702.027203-1.496229.041905l-2.866527.073546c-.46594.0112-.930535.021999-1.460024.033831l-2.793199.058023c-.453641.008673-.905989.016956-1.42473.025976l-2.72173.042964c-1.346179.018975-2.680834.034421-4.074259.046932l-2.523669.018354-.116806.000679-2.451.011047h-4.034069l-2.409112-.017082-2.410176-.021154c-.389839-.004137-.778687-.008608-1.241453-.014409l-2.351624-.033603c-.379624-.00613-.758311-.012585-1.211964-.020798l-2.196159-.043579-.150294-.003264-2.13728-.050447-.151314-.003858-2.098861-.057487-.152207-.004459-2.159441-.06745c-.350876-.011633-.70098-.023563-1.128369-.038596l-2.026882-.074897-.153809-.00598-2.070531-.084567c-.336141-.014381-.671603-.029043-1.084962-.047571l-1.940672-.090446-.154367-.007493-1.986679-.100363c-.322296-.016908-.644008-.034084-1.04362-.055865l-1.86015-.104699-.153692-.008947-1.809383-.108829-.118435-.0073-.295261-.019876-2.836784-.043255c-63.85371-1.07049-130.424785-5.738094-194.756123-12.75716l-3.857153-.423956c-24.460312-2.708246-47.163852-5.611826-66.123085-8.362599-22.279584-3.232519-29.639538-4.470044-35.595892-6.949839-29.709093-12.368719-53.213229-29.47809-70.68218-51.035739-7.002839-8.64189-13.404482-17.810361-19.152449-27.367196l-.065334-.108256-.594301-.053891c-4.576647-.453471-9.049385-1.693752-13.218386-3.674058l-.593483-.28793c-21.80125-10.799869-40.901315-26.346926-57.116858-46.291212l-.066453-.081954-.223886-.276857-.065118-.080739c-8.707283-10.824703-19.6162193-28.748445-33.8550881-55.068534-3.1623352-5.845474-4.8183282-12.386786-4.818336-19.032833l.0009091-42.350992-.1134262-.052734c-13.3345759-6.358624-22.5450071-19.864023-22.7965738-35.478191l-.000759-14.884076-20.2041376.000776c-13.2249346 0-23.94586241-10.720927-23.94586241-23.945862s10.72092781-23.945862 23.94586241-23.945862l22.5763801-.000078c3.601704-9.962005 11.0446533-18.069985 20.5151775-22.561239l.023339-.011734-.0009091-41.348649c.000008-6.833309 1.7505294-13.549019 5.0797568-19.508329l.3167349-.55645c16.4142114-28.307712 29.8794794-48.684269 41.1739564-61.87152 12.246179-14.298443 27.788881-27.072993 46.486332-38.489329 4.617066-2.8191 9.757988-4.672372 15.111814-5.44772l14.890315-2.157003.225744-.267321c14.305497-16.932259 31.542221-31.39727 50.894129-42.999372l1.020471-.607991c3.830306-2.267819 9.463539-4.858299 15.393185-7.24997l.99021-.395897.1217-.048398c4.579145-1.812382 8.924938-3.327887 12.938511-4.420612 29.121717-7.928601 61.410592-14.986466 88.31487-18.076273 49.22906-5.653683 159.473616-9.53817 265.046083-7.977152l2.46736-.06221c16.682677-.395042 33.677393-.39556 50.985014-.002619zm-24.067686 39.707034-3.27505.000093c-7.632018.012027-15.195664.106724-22.690949.284178l-3.20808.081118-.346193-.005868c-37.354741 1.01152-72.998499 4.096466-106.930181 9.267647l-1.141573.280031-1.234771.308299-1.786797.454762-1.213554.315665-1.192172.316507-.724317.195917-1.04576.288591-1.305997.371659-.552049.161761-.536977.160713-.495974.151851-.433625.136047-1.117686.378082-2.033338.884308-1.040839.463496c-48.602675 21.961852-75.085963 64.796635-81.963252 126.692086-11.522399 103.701323-8.719254 201.340526-2.522454 261.410001l.187942 1.816952.385782 3.681338c3.447883 32.514176 8.248664 71.192888 33.082211 103.149249 16.947875 21.808904 43.489471 40.110783 84.991132 51.276054l2.38161.648474.745925.208019.608256.078973 2.082824.265195 2.829595.350431 2.145417.257156 1.424528.16627 2.96324.333678 1.476191.159789 1.499332.157682 2.313029.233988 1.546738.150061 1.575807.147492 1.597491.14393 1.620177.14019 1.643858.136268 1.66853.132162 1.69419.127868 1.720829.123385 1.748441.118711 1.777023.113841 1.806566.108774 1.857253.104647c.295504.016067.592164.031923.889994.047564l1.90467.096247 1.93765.090401c.309098.013811.619435.027391.931026.040736l1.988583.081231 2.023726.07486c.323757.011342.648836.022432.975254.033266l2.078116.064905 2.095593.057459 2.133952.050421 2.192739.043557c.352721.006336.706923.012381 1.062618.018131l2.272493.032438c.36309.004502.727713.008699 1.093884.012589l2.332035.020423 2.322926.015543h3.587019l2.447183-.010662 2.519739-.018345c1.248629-.011279 2.513634-.025908 3.795458-.043995l2.649184-.04192c.428268-.007503.858376-.015386 1.290341-.023653l2.721986-.056658c.440866-.009908.883628-.02021 1.328302-.03091l2.796671-.071883c.453785-.0124.909522-.025207 1.367225-.038427l2.873235-.087592c.953271-.030573 1.914901-.062901 2.885023-.097019l2.096455-.071975c.712878-.023915 1.428932-.047395 2.148093-.070502l4.280513-.132577 4.349475-.126905 11.077232-.310229 6.789274-.19696 4.581389-.142098c60.471535-1.940299 135.26937-5.999461 185.697799-49.65381 39.892567-34.533774 57.290183-95.075701 55.864398-180.052013.001541-.84595.002892-1.689015.00405-2.529194l.005262-7.505566-.002256-4.907562-.012034-7.239273-.01377-4.733931-.018381-4.665669-.022983-4.59544-.027571-4.522916-.050036-6.660575-.039036-4.344695-.067284-6.397215-.050528-4.171046-.055108-4.100335-.091349-6.025169-.101661-5.866918-.073335-3.814873-.118803-5.602091-.129075-5.443508-.09159-3.534729-.096218-3.467269-.100628-3.392294-.159719-4.965135-.169891-4.80582-.118596-3.107405-.123231-3.040361-.127682-2.968855-.132608-2.908033c-.022044-.469472-.044272-.936169-.066683-1.400092l-.139259-2.800313-.143092-2.717501-.147433-2.645317-.151739-2.572938-.156003-2.50034-.161219-2.442631c-.026353-.38806-.052883-.77343-.079592-1.15611l-.167529-2.332846-.17184-2.261656c-.027819-.355776-.055812-.708914-.083981-1.059414l-.177901-2.150596-.180298-2.058575-.186046-2.005384c-.029543-.309142-.059252-.615751-.08913-.919829l-.193987-1.91594c-.030103-.288459-.060369-.574448-.090799-.857968l-.199877-1.805923c-.030508-.267225-.061174-.532056-.092-.794493l-.205478-1.694907c-.097347-.777668-.196199-1.53212-.296625-2.263348l-.299279-2.145089c-4.70115-33.168872-17.767857-111.459631-84.612773-144.512166-9.821803-4.856547-59.432543-20.93754-137.609217-23.615942-2.346951-.079692-4.719779-.146856-7.117955-.201303-7.788309-.176821-15.508233-.27107-23.159786-.282661zm-170.738265 1.296481-2.116801.062471c-53.613968 1.56972-95.566979 4.251959-117.011926 6.714792-29.648775 3.404996-65.025294 12.210179-82.370835 16.93263-2.525495.687584-5.670001 1.808826-8.725765 3.018268l-.870049.347657c-4.332059 1.747298-8.345452 3.607455-9.97676 4.573307l-1.01281.604275c-.112118.067407-.224171.134946-.336158.202617l-.986183.600391-.982958.607397c-.288399.179537-.576343.359963-.863822.541277l-.02424.015291-.671545.42586-.500137.319982-.415096.266084.20727-.132406-.53627.346406-.108.07-.245717.160829-.040283.025171-.501.329-.055937.037561-.070615.046553-.124448.081886-.376122.249547-.386878.257453-.101.067-.081971.055924-.231936.155763.231936-.155763c-.747822.501336-1.492151 1.008864-2.232843 1.522573l-.289186.200503-.084568.059455-.130432.090545-.037.026-.205759.144506-.135241.094494-.188.132-.689.489.411-.293-.177139.126807-.447861.318193.170179-.120644-.496179.354644-.017623.01311-.27295.196548-.062427.044342-.003.002-.346.251-.964993.706477c-.377891.27853-.754732.558725-1.130501.840584l-.161776.121498-.16073.120441-.558.423.390365-.295889.166863-.125955c-.372824.281057-.744585.563757-1.115263.848098l-.027965.020746-.019063.015342-.140937.107658-.133.102-.124017.096784-.023983.017216-.101.078-.06.047-1.076925.842259c-.383691.302318-.766168.606426-1.147409.912321-.110626.088763-.221123.177656-.331515.266699l-.101717.082112-.268434.216609-.034.028-.115.093-.014723.012744-.001277.000256-.118.096-.077.063-.358.293-.431923.35639-.378077.31261-.105212.088371-.090788.074629-.38167.320401c-.15726.13199-.314293.264294-.471097.396912l-.881526.750934-.442707.380753-.015863.014184-.291137.251816-.093736.081954c-.171716.149388-.343144.29916-.514282.449316l.442357-.386706-.519339.453436-.006.005-.026.023-.07.062-.092.081-.049.043-.128725.114431-.261275.230569-.937932.840143c-.329151.296843-.657178.595135-.984064.894876l-.27903.256466-.278465.257163-.001509.000352-.109.101-.221.206.07989-.073928-.08489.077928.005-.004-.171303.160106-.221697.206894-.214.201-.311376.294148-.133624.125852-.223.212-.150678.144064-.130322.123936-.25311.24314-.00189.00086-1.153175 1.119955-1.144527 1.133438-.323298.323607-.092.093-.255.258.1-.102-.171548.174578-.088312.089617-.00114.000805-.441.449-.015519.016931-.385481.395069-.143.148-.954718.996788-1.017919 1.081686-.455363.489526-.019.021-.294898.320861c-.123576.134539-.246933.269319-.370071.404339l-.028031.0308-.67071.740574.28871-.320574-.044171.049425-.244539.271149-.25329.280426-.022.025-.094133.10666-.144867.16134.113-.126-.76583.864767c-.318268.361973-.634973.725611-.950097 1.09091l-.001073.000323-.318069.370835c-.106192.123901-.212196.247985-.318019.37226l-.318912.374905.076-.091-.098.116-.009.011-.107.127-.229831.274312-.028169.032688-.04.048-.042.05-.338256.405942.260256-.311942-.679276.817961c-.284313.34486-.567233.691137-.848744 1.03883l-.347709.431069-.346392.432675-.006879.007465-.139.175-.013596.017836-.037404.046164-.034.043-.031.039-.056595.072234-.106405.133766-.09.114-.217165.276789-.136835.174211-.013.016-.192.246-.069607.09044c-.884517 1.1374-1.754115 2.289403-2.608258 3.455971l-.002135.002589-.1.136-.017072.024453-.059928.080547.06-.081-.22.302-.025.034-.009.012-.226.313-.027222.038336-.017778.023664-.101.14-.323.451-.031.043-.028.04-.086.121-.163.23.022-.032-.022275.032887-.194334.275112c-13.395496 19.009359-22.725873 41.763538-25.778578 68.111216-1.200441 10.360919-2.245738 20.658879-3.148198 30.859862-.011273.321941-.040022.640624-.083352.954653l-.07276.825353c-7.584672 87.2409-4.751301 167.227967.776206 218.61241l.188363 1.74635.386645 3.538291c1.969696 17.812932 7.508377 37.550897 16.516747 56.920067l.032585.070028.508051 1.083136.109159.230619.109487.230579.260899.546521.100599.209642.069756.145274.102.212.036.073-.011-.021.067324.13821.043676.08979.055.114.009.018.118.243.009.019.017.035.014257.028436.038743.079564.082.166.051.105.049.101.047.096.022796.045678c.429094.872642.865263 1.744202 1.308497 2.614468l.670149 1.304404.243558.46945.001.002.008.015.005.01.009.017.629371 1.195913c.220174.415371.441967.83039.665379 1.245032l.675089 1.242775c.451731.824876.909886 1.648166 1.374457 2.469683l.082704.145597.641729 1.124936c.486372.846044.979576 1.690099 1.479603 2.531961l.026668.045103.047.079.04249.071218.08251.137782.017.029.01702.028674.05898.098326.012.02.030647.051733.027353.045267.116.194.151.252.01.017.205.339.077.127.024.04.012.02.736227 1.204134.780746 1.257832.329056.524107.277971.440927-.087642-.139381.222642.350381-.082122-.128495.083122.131495.183.287.156.244-.023-.035.122633.190882.151367.235118.057.089.056.087.115.179.008.012.17.262.011.018.105399.162121.103601.158879.038.059.11.168.664403 1.011673c.272325.411774.546343.822834.822052 1.233152l.832203 1.22871.011342.016465.011.017.054.078.043.063.181847.26546-.150847-.22046.17519.255907.17281.251093.016.023.057.082.081247.118579.007819.011313.040934.058108.083.12.805953 1.155531c.314621.447341.631293.893694.950015 1.339025l.051032.071444.011.015.06922.096727c.04379.061039.087619.122059.131486.18306l.142294.197213-.098-.135.097855.1352.060145.0838.126088.174066.043912.060934.055.075.121935.168735.020065.028265.169.231-.080096-.109385.148096.203385.082.111.026.036.029.04.146.199.013.018.082.111.056.077.099214.135087c.539238.731954 1.084094 1.460951 1.634563 2.186837.17317.228354.347125.456701.521637.684735l.017586.022341.059.078.169.219h-.001l.015843.020189.143157.186811.007914.009442.014086.018558.041.054.087.112.077.099.063.082.058.075.057.073.016.02.042.055.047422.060551.031578.040449.039.05.073.093.101.13.046.059.04093.052697.00407.005303.075.096.078.099.062.079.042.054.085.108.049.063.026.033.325.41.099.125.036246.046246c.153326.193134.30706.386024.461202.578667l-.612107-.768997c.449693.567909.902907 1.133718 1.35964 1.697352 12.452323 15.366853 30.072205 28.922144 54.978692 39.291405 2.763169 1.150385 90.836684 15.213489 200.809098 22.015054l-.797589-.432965c-19.445623-10.5783-35.156896-23.782182-47.376653-39.506837-13.229973-17.024624-22.181472-36.3516-28.091149-58.476501-4.326072-16.196132-6.518263-30.608659-9.089973-54.860508l-.38856-3.708019-.188506-1.822413c-7.713689-74.77364-7.790249-172.706143 2.5392-265.670957 7.218417-64.965587 34.896715-111.654505 83.408544-137.681826zm226.404 69.977411c105.098993 16.646045 174.656951 125.58572 156.08071 242.87149s-118.394001 199.398966-223.492994 182.752921c-105.098992-16.646045-174.65695-125.58572-156.080709-242.87149s118.394001-199.398966 223.492993-182.752921zm112.400653 102.423526c.13401.383198.245327.776954.332356 1.179637l-.320094-.762275.336075.803542c5.596857 13.417021 10.394761 25.976613 14.393532 37.683261 4.323304 12.656737 7.160709 25.462944 8.505481 38.405922.629291 6.056716-4.254929 11.265067-10.339542 11.025706l-58.36141-2.296291c.444587 9.391235.275532 18.850802-.515097 28.327718l59.069887 7.523835c5.464869.696152 9.337397 5.681077 8.660592 11.148376-1.987805 16.057669-4.565523 29.478515-7.768635 40.311828-3.172252 10.728937-8.50036 22.562145-15.963636 35.557323-1.462623 3.780381-5.153528 6.441573-9.444734 6.392814-.964646-.011196-1.895818-.158602-2.775441-.423723l-60.362852-9.220518c-27.353391 46.937254-71.20165 80.61169-121.088301 93.543244 6.160327 1.797594 12.485193 3.221595 18.957572 4.246719 93.624071 14.828596 183.683929-59.257446 200.610537-166.127844 7.955506-50.229086-1.691355-98.562772-23.872062-137.226678zm-715.455738 196.644362.00085 4.667946c13.142132 24.292808 23.089239 40.636231 29.84132 49.03027l.223886.276857c12.30326 15.13238 26.431364 26.782568 42.38431 34.950566-7.423036-17.962547-12.315085-36.412957-14.269298-54.085944l-.389662-3.566073-.188975-1.752037c-.906494-8.426886-1.707915-17.158907-2.399809-26.152681zm528.373487-273.681776-2.133768.697311c-63.238304 21.23819-114.567437 81.782798-126.923861 159.798188-.197265 1.245484-.383708 2.489803-.559405 3.732839 5.49893-6.34889 13.480831-9.803685 21.68682-8.503984 13.375591 2.118486 22.281484 16.06664 19.891869 31.154074s-15.169839 25.600844-28.54543 23.482359c-6.270427-.993138-11.558549-4.586082-15.161121-9.67743 1.698341 69.264534 36.322182 130.41853 89.226292 161.007381.268291-.046841.537702-.078836.810525-.100072 55.505627-4.320474 106.333941-37.328834 136.205926-87.688742-.224771-.832994-.343867-1.706173-.343867-2.603789v-71.890469c0-5.522848 4.477152-10 10-10l17.056427-.000189c.742236-9.081182.856107-18.13891.350733-27.11986l-17.800245-.699956c-5.365766-.211083-9.606915-4.622355-9.606915-9.992271v-68.628294c0-2.188123.703987-4.21633 1.900711-5.866192-21.763809-37.111655-55.513698-64.628844-95.51781-76.919451-.181733-.055835-.360725-.116378-.536881-.181453zm124.18198 209.407666h-10.028l.00113 53.084748c.109987.086717.217783.175468.32336.26617l51.437043 7.856192.641-55.81zm-652.555467 6.38011v37.857l53.863042 3.287319c-.70935-12.531393-1.216245-25.475744-1.50997-38.728717zm714.902 1.561-.085752 7.455258c.405892-2.287661.795915-4.660467 1.16987-7.118139l.028349-.194229zm-133.694646-64.382335c12.229112 1.936901 20.371643 14.689499 18.186852 28.483725-2.18479 13.794226-13.869567 23.406486-26.098679 21.469585-12.229111-1.936901-20.371642-14.689498-18.186851-28.483724 2.18479-13.794226 13.869567-23.406487 26.098678-21.469586zm-604.116354 5.161335v36.583l68.484159 3.158973v-37.498zm738.275273-21.675958-.098273 8.389958 1.894467.074855-.216938-1.165092c-.465373-2.437679-.991769-4.870878-1.579256-7.299721zm-19.475273-45.598042-53.363533 1.783855v49.343l15.59756.612515c.019058-.002046.038135-.004039.057229-.005981.984238-.100061 1.949624-.053803 2.87454.121146l34.219204 1.346465zm-639.89084-.606414-56.00016-.000586v48.621l53.038558 1.737677c.65183-16.686571 1.633043-33.530914 2.961602-50.358091zm510.49576-97.473883-2.437645.172363c33.833756 17.304748 61.920862 45.014749 80.77239 79.603997l58.998317-1.972255c.739549-.164923 1.509638-.247838 2.300088-.238802 2.927562.03419 5.54674 1.322898 7.35227 3.349149-25.163246-41.802589-65.251016-71.669686-113.554944-79.320276-11.234888-1.779432-22.418452-2.278492-33.430476-1.594176zm-487.337064-6.050087-5.256367.761409c-15.288168 9.334687-27.605108 19.457983-36.950819 30.369886-8.92381 10.419297-20.556637 27.88362-34.898482 52.392968l55.69254-.000399c.727735-7.602205 1.528175-15.18666 2.402989-22.737115 2.554706-22.049479 9.093691-42.45169 19.010139-60.786749z"/></svg>