<?xml version="1.0" encoding="UTF-8"?>
<svg width="960px" height="960px" viewBox="0 0 960 960" version="1.1" xmlns="http://www.w3.org/2000/svg" xmlns:xlink="http://www.w3.org/1999/xlink">
    <title>com.evehome / driver / energy/assets/pair</title>
    <style type="text/css">
        #pair {
            animation: fillpulse 12s infinite;
        }
        
        @keyframes fillpulse {
            0%, 8%, 92%, 100% {
                fill: rgba(255,255,255,0);
            }
            10%, 90% {
                fill: #0078CC;
            }
        }
    </style>
    <g id="com.evehome-/-driver-/-energy" stroke="none" stroke-width="1" fill="none" fill-rule="evenodd">
        <path d="M359.859454,64.9901592 C439.843063,54.4375075 524.065739,53.7955664 562.065542,65.3357565 C603.391277,77.8860016 715.640952,116.802887 787.713638,143.770652 C826.200361,158.171404 851.550883,173.05948 868.769208,191.387396 C884.611672,208.250788 893.591441,227.564723 900.41712,256.065156 C908.74425,290.834853 914.576625,327.8831 917.719395,376.506403 C921.956952,442.067663 920.317236,519.858072 911.366422,612.441165 C901.690359,712.525906 872.776838,777.958663 821.477498,820.0894 C797.863566,839.482874 769.431254,854.069158 734.655893,865.333154 C704.472522,875.109772 669.809589,882.399426 624.55897,889.098592 C544.252786,900.987587 494.116316,904.806277 455.088312,902.015951 C420.58213,899.548915 396.673398,893.010043 352.995001,876.057226 C306.25337,857.915483 243.161462,830.519542 163.671779,793.85449 L164.365782,794.174006 L163.695432,793.982754 C116.44711,780.21882 84.1535739,749.019982 67.5333549,701.184093 L67.0294693,699.714533 C54.5508018,662.833939 45.4509802,607.361732 41.1941792,537.763749 C40.0880905,519.679384 39.7120203,487.856678 40.0625681,455.364229 L40.0964377,452.408889 L40.1343101,449.45204 C40.3336784,434.667664 40.6831317,419.908554 41.1823508,406.40204 C41.2156081,405.502256 41.2434358,404.746829 41.2692807,404.03387 L41.281081,403.707457 C41.3862417,400.790199 41.4663411,398.335239 41.7684219,389.03993 C42.0672178,379.845698 42.2712719,374.193209 42.526585,368.577242 L42.5662881,367.713062 C42.5863615,367.280643 42.6067825,366.847377 42.6276176,366.411668 C44.2001329,333.526806 47.743979,306.3132 56.2179466,268.514714 C64.9362531,229.626343 83.0523874,196.44849 109.414901,168.650604 C132.46638,144.344031 161.397773,124.568463 195.251544,108.737314 C223.400762,95.5738035 254.132459,85.4930907 287.079206,77.8238486 C311.235808,72.2007494 333.258155,68.4998063 359.859454,64.9901592 Z M556.253818,84.472733 C521.738067,73.9906174 439.810953,74.6150618 362.475487,84.8183303 C336.463768,88.2501911 315.030482,91.8521403 291.613519,97.3030685 C259.937195,104.676585 230.500488,114.332511 203.723631,126.85426 C135.633079,158.695666 90.7164611,206.05788 75.7335295,272.889873 C67.5188499,309.531796 64.1236669,335.6038 62.6047904,367.366953 C62.5707705,368.078385 62.5378587,368.783678 62.5057524,369.49012 L62.4675919,370.338868 C62.2344146,375.581975 62.038714,381.047682 61.7578689,389.689551 C61.4884443,397.98 61.3949601,400.848815 61.3030443,403.449592 L61.2915504,403.773666 C61.2896319,403.82757 61.2877109,403.881451 61.2857859,403.935355 L61.2741746,404.259435 C61.2430142,405.126387 61.2100099,406.023205 61.1687034,407.140763 C60.3641605,428.907899 59.9538436,454.013569 59.9361837,477.095277 L59.9361837,479.911129 C59.9507671,502.818682 60.358128,523.483397 61.156875,536.542777 C65.3144801,604.518923 74.142851,658.336375 85.9744118,693.304451 C100.513842,736.275611 128.459231,763.274621 170.574005,775.149185 C171.079089,775.291597 171.572179,775.473546 172.048706,775.693347 C251.195355,812.200174 313.938821,839.444812 360.231604,857.412346 C402.211081,873.705763 424.3829,879.769602 456.514581,882.066872 C493.767291,884.730272 542.64734,881.007279 621.629978,869.314229 C713.470003,855.717696 768.147913,838.007117 808.78415,804.633692 C855.503728,766.264187 882.254539,705.725753 891.45924,610.516565 C900.309852,518.969903 901.927004,442.249998 897.761042,377.796413 C894.694565,330.353487 889.038428,294.424734 880.967143,260.723307 C874.884115,235.323793 867.319961,219.054602 854.19272,205.081409 C839.39221,189.327117 816.562001,175.919193 780.704727,162.502314 C708.994845,135.670301 597.12109,96.8837471 556.253818,84.472733 Z" id="Path-4" fill="#000000" fill-rule="nonzero"></path>
        <path d="M605.584798,159.346064 C678.399348,150.80226 714.902098,147.829856 751.845287,149.035986 C800.961352,150.63954 834.871133,161.091907 853.944393,183.539909 C855.732414,185.644296 855.475949,188.799715 853.371563,190.587736 C851.267177,192.375758 848.111757,192.119293 846.323736,190.014907 C829.524204,170.242936 798.080861,160.550825 751.518979,159.030661 C715.249758,157.846535 679.057037,160.793693 606.750168,169.277927 C549.719203,175.969741 509.141401,183.157704 473.885467,193.579613 C433.852849,205.413545 401.287483,221.499256 372.979154,244.054181 C347.552577,264.313043 330.991697,317.347199 322.202452,394.263218 C318.783125,424.186271 316.659649,456.595466 315.543333,491.284901 C315.307485,498.613885 315.123979,505.520893 314.982524,512.400294 L314.93924,514.572278 C314.932255,514.934276 314.925384,515.296313 314.918624,515.658445 L314.879398,517.832851 C314.626692,532.342709 314.548357,547.190184 314.548357,566.055067 L314.547617,567.840598 C314.547541,567.910831 314.547457,567.980633 314.547366,568.050039 L314.546714,568.461983 C314.546081,568.801753 314.545212,569.133295 314.544023,569.460829 L314.542438,569.852216 C314.541272,570.112219 314.539879,570.370738 314.538218,570.629935 L314.535519,571.019508 L314.532384,571.411718 C314.490905,576.271902 314.342702,582.103669 313.816274,602.592167 C312.512626,653.329889 312.760668,685.892583 315.88912,721.414459 C320.084102,769.046207 329.213037,808.109084 344.583841,837.529618 C352.522742,852.725094 361.322457,860.571179 378.625571,869.699216 C382.030527,871.495457 396.435596,878.689409 400.089317,880.583761 C402.54083,881.854802 403.497792,884.872528 402.226751,887.324041 C400.955711,889.775554 397.937984,890.732516 395.486471,889.461475 C393.743215,888.557645 389.373812,886.358625 384.95946,884.133724 L383.978802,883.639392 C379.73517,881.499909 375.627156,879.423614 373.959649,878.543942 C355.002274,868.543221 344.709869,859.36621 335.720584,842.160241 C319.634759,811.37112 310.227976,771.119326 305.927679,722.291774 C305.388686,716.171808 304.934088,710.142473 304.557216,704.098802 L304.427419,701.964976 C302.718436,673.145669 302.756226,643.720556 303.819573,602.335314 C304.343181,581.956598 304.490931,576.140871 304.532365,571.334826 L304.535497,570.947091 L304.539391,570.370275 C304.540539,570.178458 304.541541,569.986796 304.542417,569.794385 L304.544004,569.408297 C304.545195,569.085279 304.546066,568.75851 304.546702,568.423807 L304.547357,568.018089 C304.547449,567.949745 304.547533,567.881017 304.547609,567.811872 L304.548357,566.055067 C304.548357,535.772111 304.749801,515.783006 305.548507,490.963264 C306.672947,456.021362 308.813589,423.350171 312.267108,393.1279 C321.355204,313.596589 338.48037,258.755379 366.747671,236.233144 C396.125833,212.82582 429.843293,196.171029 471.050659,183.989834 C506.958801,173.375128 548.037054,166.098515 605.584798,159.346064 Z" id="Path-6" fill="#000000" fill-rule="nonzero"></path>
        <path d="M401.253388,450.573957 C456.571811,302.023985 596.63053,218.800031 714.473125,265.429443 C832.226881,312.023701 882.235081,470.309808 826.940193,618.796584 C771.621771,767.346556 631.563052,850.57051 513.720456,803.941098 C395.966701,757.34684 345.9585,599.060733 401.253388,450.573957 Z M710.793774,274.727957 C598.711672,230.377928 464.146865,310.337358 410.624699,454.063733 C357.078999,597.853305 405.228864,750.257401 517.399807,794.642583 C629.48191,838.99262 764.046716,759.033183 817.568882,615.306808 C871.114582,471.517236 822.964717,319.11314 710.793774,274.727957 Z" id="Oval" fill="#000000" fill-rule="nonzero"></path>
        <path d="M633.036698,252.938194 C634.511082,252.830118 635.957714,253.380037 636.987994,254.440233 C706.34143,325.807448 725.485858,448.947347 682.961419,563.140845 C640.876766,676.153361 548.161828,754.151628 451.159937,760.780766 C449.693721,760.880968 448.257671,760.331043 447.233414,759.277133 C377.87453,687.910262 358.728098,564.769744 401.253388,450.573957 C442.96598,338.560561 534.44266,260.878587 630.677508,253.11113 L633.036698,252.938194 Z M631.419699,263.082814 L628.683842,263.324762 C537.595759,272.017583 450.647031,346.589296 410.624699,454.063733 C369.381617,564.816326 387.89262,683.870075 454.404647,752.30767 L452.795699,750.627814 L453.262163,750.593056 C544.171673,743.027639 631.432403,669.584305 672.351989,562.926446 L673.590109,559.651069 C714.832383,448.900644 696.323295,329.847346 629.81647,261.409397 L631.419699,263.082814 Z" id="Combined-Shape" fill="#000000" fill-rule="nonzero"></path>
        <path d="M571.961128,506.693363 C588.457968,513.221036 608.161898,501.512811 615.971088,480.542311 C623.780278,459.57181 616.737547,437.280137 600.240708,430.752464 C583.743868,424.224791 564.039938,435.933016 556.230748,456.903516 C548.421558,477.874016 555.464289,500.16569 571.961128,506.693363 Z" id="Oval" fill="#000000"></path>
        <path d="M172.872382,180.437867 L221.103895,195.199116 C225.025418,196.366633 226.437166,200.596601 224.257122,204.585965 C219.476902,212.626833 215.65331,218.450552 212.786345,222.057123 C210.310629,225.171511 206.120201,229.42923 200.215061,234.830279 C198.035016,238.511212 193.088717,240.087517 189.167193,238.412103 L148.617815,222.057123 C144.696291,220.812237 143.975254,211.215712 146.155299,208.198952 C148.90009,202.998938 151.116834,199.158197 152.805531,196.676731 C154.598882,194.041478 157.605211,190.207138 161.824515,185.173713 C164.004559,181.848521 168.950858,179.700878 172.872382,180.437867 Z" id="pair" fill="#0074CC"></path>
        <path d="M158.016443,181.892765 C161.439331,177.199642 168.111988,174.455694 173.795886,175.523893 C173.978127,175.558142 174.158322,175.602503 174.335636,175.65677 L222.530608,190.406988 C229.664857,192.530998 232.279921,200.331446 228.644736,206.983639 L228.554997,207.141012 C223.669052,215.359723 219.737693,221.347581 216.700353,225.168479 C214.025678,228.533153 209.673299,232.955424 203.589609,238.519781 L204.070074,238.077871 L203.986785,238.201438 C200.388253,243.351279 193.377181,245.472018 187.505459,243.134917 L187.296917,243.049135 L146.862074,226.740871 L146.843807,226.734432 C139.856336,224.224312 138.043265,211.635229 141.81324,205.697769 L141.859074,205.627871 L142.034109,205.296843 C144.622045,200.418713 146.75824,196.71818 148.475604,194.154471 L148.671905,193.863702 C150.579629,191.060382 153.674941,187.11255 157.992703,181.96167 L157.828074,182.156871 L158.016443,181.892765 Z M150.212074,211.119871 L150.232802,211.093757 C150.265335,211.051458 150.254573,211.078477 150.226086,211.165473 C150.148224,211.403253 150.077036,211.729654 150.025718,212.117607 C149.906688,213.017449 149.913649,214.093055 150.053038,215.119996 C150.187235,216.108687 150.431263,216.953025 150.705539,217.479014 L150.725074,217.515871 L191.03747,233.775072 L191.131599,233.814157 C192.766603,234.512688 195.023016,233.784993 195.912963,232.282347 C196.164178,231.858178 196.476743,231.473494 196.840512,231.140777 C202.567104,225.903035 206.59558,221.809868 208.872336,218.945767 C211.568926,215.553524 215.284752,209.893943 219.959246,202.030919 L219.898074,202.132871 L219.959229,202.018161 C220.550138,200.853933 220.36613,200.247137 219.733963,200.011387 L219.64064,199.980213 L171.735074,185.318871 L171.539121,185.300212 C169.708111,185.173524 167.210264,186.28546 166.124829,187.745212 L166.005973,187.915138 C165.898729,188.078715 165.78198,188.235857 165.656326,188.385756 C161.53548,193.301726 158.618136,197.022573 156.939157,199.489761 C155.376589,201.785887 153.242204,205.483931 150.577103,210.532971 C150.468068,210.739538 150.344692,210.93821 150.207883,211.127529 L150.212074,211.119871 Z" id="Rectangle" fill="#000000" fill-rule="nonzero"></path>
    </g>
</svg>