<svg height="960" viewBox="0 0 960 960" width="960" xmlns="http://www.w3.org/2000/svg"><path d="m266.888087 12.0013532c1.221186 0 2.442342.0120916 3.663356.0362743l9.977962.197639c.045297.0008796.045297.0008796.09045.0017704l170.093286 3.3681606 311.950148 6.1789243c100.725145 1.9949063 181.336711 84.2188292 181.336711 184.9637272v547.503722c0 100.744898-80.611566 182.968821-181.336729 184.963727l-9.632204.190765c-.023223.000465-.023223.000465-.046602.000929l-157.084328 3.110517-325.348761 6.444285c-18.186116.360184-36.10993-1.923031-53.330061-6.715731l-1.081315-.30571-46.72431-5.490232c-92.2503852-10.837044-162.00872547-88.341034-163.39466724-180.926365l-.02102276-2.810179v-545.177169c0-93.460744 69.7074191-172.2426528 162.470161-183.6230011l54.763839-6.7210537.04753-.0127235c13.722832-3.3185809 27.851441-5.0636846 42.173694-5.1782765zm-135.888087 194.9712988v547.054076c0 1.022796.01013 2.045568.03039 3.068164 1.622693 81.905358 66.535011 147.70885 147.168646 151.71214l316.908964-6.281679 157.084558-3.110522c.012356-.000244.024712-.000491.037067-.000738l9.641602-.190952c78.946735-1.563575 142.128773-66.009352 142.128773-144.97157v-547.503722c0-78.962218-63.182038-143.4079948-142.128773-144.97157l-311.950227-6.1789258-170.093063-3.3681563c-.023999-.0004753-.047998-.000945-.071997-.0014092l-1.562432-.0323132c-81.981188 4.0891622-147.193508 71.8213675-147.193508 154.7771775zm57.345209-145.203-15.001767 1.8457844c-72.707897 8.9199733-127.343442 70.6679566-127.343442 143.9209716v545.177169c0 73.536923 55.047865 135.430028 128.082568 144.009724l12.801362 1.507712c-44.854837-30.873754-74.68901-82.158416-75.849616-140.739963-.022875-1.154633-.034314-2.309463-.034314-3.464322v-547.054076c0-60.470083 30.688086-113.7741915 77.345209-145.203zm98.523981 11.230348c.771787 0 1.29124.0100519 1.927567.0281159l472.807869 9.3578815c35.176945.6962279 68.007783 14.9940072 92.335925 39.4164206l.734608.743168c24.395686 24.871218 38.324841 58.26991 38.324841 93.786801v528.334606c0 35.516891-13.929155 68.915583-38.324841 93.786801-24.39974 24.87535-57.538265 39.456328-93.070533 40.159589l-472.90099 9.359734c-36.01259.712767-70.09551-12.90621-95.550009-37.360058-25.450236-24.449752-40.414332-57.944216-41.127357-93.934134-.017513-.883957-.02627-1.768066-.02627-2.652197v-547.054076c0-35.996842 14.297635-69.780787 39.258509-94.72929 24.96506-24.9526848 58.771472-39.243362 94.790996-39.243362zm-.819685 20c-31.496227 0-60.011626 12.758493-80.652366 33.389003-20.633382 20.623154-33.397139 49.113294-33.397139 80.583649v547.054076c0 .752068.007449 1.504118.022346 2.256039.623367 31.464413 13.949108 59.696562 34.987086 79.907509 21.045475 20.218148 49.808167 32.410018 81.298439 31.786757l472.90099-9.359734c31.049938-.614546 59.000685-13.58734 79.188325-34.168487 20.180504-20.573871 32.602814-48.751237 32.602814-79.781819v-528.334606c0-31.030582-12.42231-59.207948-32.602814-79.781819-20.18764-20.581147-48.138387-33.553941-79.188325-34.168487l-472.90099-9.3597342c-.501798-.0148979-1.003653-.0198638-1.505532-.0215191zm275.972003 214.94596c84.450263 13.512297 140.218636 101.747701 125.345717 196.61125-14.876371 94.885559-94.94711 161.427371-179.424258 147.910773-84.450263-13.512297-140.218637-101.747701-125.345717-196.61125 14.87637-94.88556 94.947109-161.427372 179.424258-147.910773zm-78.197209 32.260662.496681-.137167c19.483349-5.343328 40.62261-6.481046 62.353375-3.284821 76.058853 11.186961 126.582971 84.670123 113.08295 163.823929-13.471094 78.984192-85.657629 134.129831-161.532447 122.969938-11.383986-1.67439-22.15365-4.365237-32.192578-8.013368 13.528885 8.59476 28.697387 14.53429 45.070555 17.154046 72.930268 11.669063 143.26052-46.778036 156.505756-131.259772 13.248687-84.503748-35.789797-162.091279-108.746952-173.764644-26.188665-4.190265-52.042066.660735-75.03734 12.511859zm-28.743707 35.394815c-25.874159 18.349113-43.497501 48.080286-50.223374 87.515667-3.712026 21.764479-2.317976 42.15262 3.374122 64.754394 10.489755 41.651966 44.697744 68.82959 92.903866 75.919889 64.902613 9.546069 127.227306-38.065789 138.90679-106.545355 11.650556-68.309953-31.55941-131.155284-96.277988-140.674284-33.199277-4.883048-64.306034 1.742041-88.683416 19.029689zm89.454679-211.949141c21.343326 3.414997 35.093097 25.169559 31.494541 48.122134-3.602007 22.974586-23.374788 39.406514-44.745 35.987216-21.343326-3.414996-35.093096-25.169559-31.49454-48.122134 3.602007-22.974585 23.374788-39.406514 44.744999-35.987216zm-24.986365 39.085019c-1.974323 12.592773 5.045558 23.699463 14.895775 25.275528 9.823331 1.571762 19.855625-6.765453 21.826497-19.336216 1.974323-12.592773-5.045558-23.699463-14.895775-25.275527-9.823331-1.571763-19.855625 6.765452-21.826497 19.336215z"/></svg>