<?xml version="1.0" encoding="UTF-8"?>
<svg width="960px" height="960px" viewBox="0 0 960 960" version="1.1" xmlns="http://www.w3.org/2000/svg" xmlns:xlink="http://www.w3.org/1999/xlink">
    <title>com.evehome / driver / motion/assets/pair</title>
    <style type="text/css">
        #pair {
            animation: fillpulse 12s infinite;
        }
        
        @keyframes fillpulse {
            0%, 8%, 92%, 100% {
                fill: rgba(255,255,255,0);
            }
            10%, 90% {
                fill: #0078CC;
            }
        }
    </style>
    <g id="com.evehome-/-driver-/-motion" stroke="none" stroke-width="1" fill="none" fill-rule="evenodd">
        <path d="M732,38 C836.934102,38 922,123.065898 922,228 L922,732 C922,836.934102 836.934102,922 732,922 L228,922 C123.065898,922 38,836.934102 38,732 L38,228 C38,123.065898 123.065898,38 228,38 L732,38 Z M732,58 L228,58 C134.111593,58 58,134.111593 58,228 L58,732 C58,825.888407 134.111593,902 228,902 L732,902 C825.888407,902 902,825.888407 902,732 L902,228 C902,134.111593 825.888407,58 732,58 Z" id="Rectangle" fill="#000000" fill-rule="nonzero"></path>
        <path d="M732,73 C817.604136,73 887,142.395864 887,228 L887,732 C887,817.604136 817.604136,887 732,887 L228,887 C142.395864,887 73,817.604136 73,732 L73,228 C73,142.395864 142.395864,73 228,73 L732,73 Z M732,83 L228,83 C147.918711,83 83,147.918711 83,228 L83,732 C83,812.081289 147.918711,877 228,877 L732,877 C812.081289,877 877,812.081289 877,732 L877,228 C877,147.918711 812.081289,83 732,83 Z" id="Rectangle" fill="#000000" fill-rule="nonzero"></path>
        <path d="M773.157191,482 C775.918614,482 778.157191,484.238576 778.157191,487 L778.157191,614.725753 C778.157191,617.487176 775.918614,619.725753 773.157191,619.725753 L186,619.725753 C183.238576,619.725753 181,617.487176 181,614.725753 L181,487 C181,484.238576 183.238576,482 186,482 L773.157191,482 Z M768.157,492 L191,492 L191,609.725 L768.157,609.725 L768.157,492 Z" id="Rectangle" fill="#000000" fill-rule="nonzero"></path>
        <path d="M480,163 C496.016258,163 509,175.983742 509,191.999838 L509.001,235.043 L509.309442,235.257597 C522.605538,244.600985 530.820074,259.808617 530.99708,276.450841 L531,277 C531,305.166522 508.166522,328 480,328 C451.833478,328 429,305.166522 429,277 C429,260.143125 437.248777,244.702881 450.691553,235.256898 L450.999,235.042 L451,192 C451,176.143905 463.725366,163.259978 479.520432,163.003885 L480,163 Z M480,173 C469.50659,173 461,181.50659 461,192.000053 L460.999519,237.749819 C460.999501,239.489469 460.095258,241.104062 458.611949,242.013005 C446.521341,249.421893 439,262.559466 439,277 C439,299.643675 457.356325,318 480,318 C502.643675,318 521,299.643675 521,277 C521,262.559837 513.479048,249.422555 501.388942,242.013551 C499.905727,241.104614 499.001537,239.490107 499.00148,237.75054 L499,192 C499,181.50659 490.49341,173 480,173 Z" id="Combined-Shape" fill="#000000" fill-rule="nonzero"></path>
        <path d="M773.157191,639.274247 C775.918614,639.274247 778.157191,641.512824 778.157191,644.274247 L778.157191,772 C778.157191,774.761424 775.918614,777 773.157191,777 L186,777 C183.238576,777 181,774.761424 181,772 L181,644.274247 C181,641.512824 183.238576,639.274247 186,639.274247 L773.157191,639.274247 Z M768.157,649.274247 L191,649.274247 L191,766.999247 L768.157,766.999247 L768.157,649.274247 Z" id="Rectangle" fill="#000000" fill-rule="nonzero"></path>
        <circle id="pair" fill="#0074CC" cx="479.973435" cy="829.820118" r="19.6115056"></circle>
        <path d="M479.973435,805.208612 C493.565994,805.208612 504.584941,816.227559 504.584941,829.820118 C504.584941,843.412677 493.565994,854.431624 479.973435,854.431624 C466.380876,854.431624 455.361929,843.412677 455.361929,829.820118 C455.361929,816.227559 466.380876,805.208612 479.973435,805.208612 Z M479.973435,815.208612 C471.903723,815.208612 465.361929,821.750406 465.361929,829.820118 C465.361929,837.88983 471.903723,844.431624 479.973435,844.431624 C488.043147,844.431624 494.584941,837.88983 494.584941,829.820118 C494.584941,821.750406 488.043147,815.208612 479.973435,815.208612 Z" id="Oval" fill="#000000" fill-rule="nonzero"></path>
        <path d="M912,444.406998 C914.761424,444.406998 917,446.645574 917,449.406998 C917,452.168422 914.761424,454.406998 912,454.406998 L48,454.406998 C45.2385763,454.406998 43,452.168422 43,449.406998 C43,446.645574 45.2385763,444.406998 48,444.406998 L912,444.406998 Z" id="Path-5" fill="#000000" fill-rule="nonzero"></path>
    </g>
</svg>