<svg id="Ebene_1" data-name="Ebene 1" xmlns="http://www.w3.org/2000/svg" viewBox="0 0 780.0581 300"><title>Eve_Logo_Normal_black</title><polygon points="698.117 221.027 701.41 293.781 776.729 293.781 780.058 221.027 739.088 194.024 698.117 221.027"/><polyline points="394.906 6.199 327.196 249.949 326.057 249.949 258.431 6.199 210.41 6.199 295.837 293.801 356.556 293.801 443.781 6.199 394.818 6.199"/><path d="M54.4053,64.07636c8.51327-17.01873,21.91256-24.55293,47.16328-24.55293s38.62516,7.5342,47.13842,24.55293c8.7013,17.39175,8.55677,52.01668,8.55677,61.366H46.20285c0-9.34936-.50041-43.97429,8.20245-61.366M157.91494,200.10205c-.61077,10.90966-.29839,24.06652-11.30129,39.91505-8.30036,11.9571-20.1953,20.39732-44.72182,20.39732s-34.224-11.0604-41.048-20.1984c-11.9571-16.0086-14.47006-41.79859-14.47006-74.829H203.32832l.02175.00156c-.65117-51.62506,2.44457-100.23518-20.85889-131.69448C163.52673,8.09056,136.95969,0,101.89183,0,66.82553,0,43.54227,7.08974,22.57615,34.01886-1.47327,64.9078.06216,116.57637.06216,125.71592c0,7.3073-.06216,37.38189-.06216,54.5172,0,47.342,6.74938,68.25062,21.27072,86.54838C42.0146,292.91805,71.567,300,101.89183,300c30.32636,0,63.18586-7.14567,81.68722-33.088,12.69063-17.79424,19.45089-38.97793,19.94818-66.81H157.91494Z"/><path d="M503.98629,64.07636c8.51325-17.01873,21.91256-24.55293,47.16327-24.55293s38.62516,7.5342,47.13841,24.55293c8.70131,17.39175,8.5568,52.01668,8.5568,61.366h-111.061c0-9.34936-.5004-43.97429,8.20247-61.366M607.49594,200.10205c-.61076,10.90966-.29841,24.06652-11.30129,39.91505-8.30036,11.9571-20.19534,20.39732-44.72183,20.39732s-34.224-11.0604-41.048-20.1984c-11.95711-16.0086-14.47007-41.79859-14.47007-74.829H652.9093l.02177.00156c-.65117-51.62506,2.44457-100.23518-20.85889-131.69448C613.10772,8.09056,586.54068,0,551.47282,0c-35.0663,0-58.34955,7.08974-79.31567,34.01886-24.04943,30.88894-22.514,82.55751-22.514,91.69706,0,7.3073-.06218,37.38189-.06218,54.5172,0,47.342,6.74936,68.25062,21.27069,86.54838C491.5956,292.91805,521.148,300,551.47282,300c30.32637,0,63.18585-7.14567,81.68719-33.088,12.69066-17.79424,19.45093-38.97793,19.9482-66.81H607.49594Z"/></svg>