<?xml version="1.0" encoding="UTF-8"?>
<svg width="960px" height="960px" viewBox="0 0 960 960" version="1.1" xmlns="http://www.w3.org/2000/svg" xmlns:xlink="http://www.w3.org/1999/xlink">
    <title>com.evehome / driver / energy_outlet/assets/pair</title>
    <style type="text/css">
        #pair {
            animation: fillpulse 12s infinite;
        }
        
        @keyframes fillpulse {
            0%, 8%, 92%, 100% {
                fill: rgba(255,255,255,0);
            }
            10%, 90% {
                fill: #0078CC;
            }
        }
    </style>
    <g id="com.evehome-/-driver-/-energy_outlet" stroke="none" stroke-width="1" fill="none" fill-rule="evenodd">
        <g id="Group-2" transform="translate(441.0575, 254)" fill="#000000">
            <path d="M38.9425287,95.5862069 C51.1626223,95.5862069 61.0689655,105.49255 61.0689655,117.712644 L61.0689655,154 L61.0689655,154 L16.816092,154 L16.816092,117.712644 C16.816092,105.49255 26.7224351,95.5862069 38.9425287,95.5862069 Z" id="Rectangle"></path>
            <rect id="Rectangle" x="0" y="0" width="16.816092" height="64.6091954"></rect>
            <rect id="Rectangle" x="61.0689655" y="5.31034483" width="16.816092" height="53.9885057"></rect>
        </g>
        <circle id="pair" fill="#0074CC" cx="540.973435" cy="480.820118" r="19.6115056"></circle>
        <path d="M540.973435,456.208612 C554.565994,456.208612 565.584941,467.227559 565.584941,480.820118 C565.584941,494.412677 554.565994,505.431624 540.973435,505.431624 C527.380876,505.431624 516.361929,494.412677 516.361929,480.820118 C516.361929,467.227559 527.380876,456.208612 540.973435,456.208612 Z M540.973435,466.208612 C532.903723,466.208612 526.361929,472.750406 526.361929,480.820118 C526.361929,488.88983 532.903723,495.431624 540.973435,495.431624 C549.043147,495.431624 555.584941,488.88983 555.584941,480.820118 C555.584941,472.750406 549.043147,466.208612 540.973435,466.208612 Z" id="Oval" fill="#000000" fill-rule="nonzero"></path>
        <path d="M419.973435,456.208612 C433.565994,456.208612 444.584941,467.227559 444.584941,480.820118 C444.584941,494.412677 433.565994,505.431624 419.973435,505.431624 C406.380876,505.431624 395.361929,494.412677 395.361929,480.820118 C395.361929,467.227559 406.380876,456.208612 419.973435,456.208612 Z M419.973435,466.208612 C411.903723,466.208612 405.361929,472.750406 405.361929,480.820118 C405.361929,488.88983 411.903723,495.431624 419.973435,495.431624 C428.043147,495.431624 434.584941,488.88983 434.584941,480.820118 C434.584941,472.750406 428.043147,466.208612 419.973435,466.208612 Z" id="Oval" fill="#000000" fill-rule="nonzero"></path>
        <g id="Group-2" transform="translate(441.0575, 551)" fill="#000000">
            <path d="M38.9425287,95.5862069 C51.1626223,95.5862069 61.0689655,105.49255 61.0689655,117.712644 L61.0689655,154 L61.0689655,154 L16.816092,154 L16.816092,117.712644 C16.816092,105.49255 26.7224351,95.5862069 38.9425287,95.5862069 Z" id="Rectangle"></path>
            <rect id="Rectangle" x="0" y="0" width="16.816092" height="64.6091954"></rect>
            <rect id="Rectangle" x="61.0689655" y="5.31034483" width="16.816092" height="53.9885057"></rect>
        </g>
        <path d="M745,22 C763.777681,22 779,37.2223185 779,56 L779,905 C779,923.777681 763.777681,939 745,939 L216,939 C197.222319,939 182,923.777681 182,905 L182,56 C182,37.2223185 197.222319,22 216,22 L745,22 Z M745,42 L216,42 C208.268014,42 202,48.2680135 202,56 L202,905 C202,912.731986 208.268014,919 216,919 L745,919 C752.731986,919 759,912.731986 759,905 L759,56 C759,48.2680135 752.731986,42 745,42 Z" id="Rectangle" fill="#000000" fill-rule="nonzero"></path>
        <path d="M608,197 C624.016258,197 637,209.983742 637,226 L637,735 C637,751.016258 624.016258,764 608,764 L353,764 C336.983742,764 324,751.016258 324,735 L324,226 C324,209.983742 336.983742,197 353,197 L608,197 Z M608,207 L353,207 C342.50659,207 334,215.50659 334,226 L334,735 C334,745.49341 342.50659,754 353,754 L608,754 C618.49341,754 627,745.49341 627,735 L627,226 C627,215.50659 618.49341,207 608,207 Z" id="Rectangle" fill="#000000" fill-rule="nonzero"></path>
    </g>
</svg>