<svg height="960" viewBox="0 0 960 960" width="960" xmlns="http://www.w3.org/2000/svg"><path d="m553.010405 84.4465351-.815405-.0125351 2.987854-.0745146c19.310795-.4516663 38.957554-.4776379 58.943841-.0787612l4.001785.0854397c48.732332 1.1081768 93.261573 6.2677419 132.06324 14.2839862 29.338679 6.0612349 54.205464 13.6344549 66.538082 19.7358949 46.947705 23.22691 79.788662 61.637607 101.138919 110.363669 8.033905 18.33517 14.159097 37.504231 18.85486 57.577647 3.404717 14.554462 5.654265 27.466626 7.94319 43.625716l.386846 2.774928c.147687 1.075941.292266 2.179804.433971 3.312469l.018983.154162.257556 2.125656.017622.147733c.043693.372196.087108.747325.130248 1.125408l.015375.136839.250536 2.264887.014327.131508c.042328.39459.084386.792221.126178 1.192908l.012567.122317.243153 2.402864.011749.117842c.040932.41682.081602.836767.12201 1.259854l.010354.110014.233209 2.51504.018464.204966.225994 2.581749.016363.192267.230589 2.790387c.037616.468316.074979.939907.118845 1.502458l.215392 2.836442.0122.165197.215658 3.00583c.035222.504925.070194 1.013198.109982 1.600486l.20208 3.06341.009202.143422.195542 3.135786.008242.135893.190196 3.226833.007391.128937.1848 3.317608.006635.122499.179359 3.408137.005962.116527.177326 3.568588c.028962.599836.05768 1.203136.088648 1.863834l.166218 3.647091.004577.103367.164165 3.82209.158174 3.907422.148654 3.897132.004125.112279.21295 6.027189.004287.127041.200199 6.226992.003089.099972.128324 4.330828.122573 4.421883.116983 4.520916.161789 6.826941.002246.100069.150514 7.105071.093305 4.860139.128833 7.444539.115485 7.62523.069751 5.195395.064056 5.294901.084934 8.084292.049416 5.507744.063101 8.409933.034802 5.716138.028999 5.805793.02318 5.892623.017374 5.986866.015134 9.127163.002822 6.201189-.006623 9.440171-.002371 1.592126-.00339 1.523713.001-.275.045675 3.173467c1.409254 116.230376-24.201919 200.202867-82.098398 251.586147l-1.782432 1.562777c-34.881351 30.212457-78.107868 49.036727-129.766766 59.694453-37.260007 7.687096-71.874044 10.523979-127.943463 12.324005l-5.822715.18062-8.550159.248161-13.837924.387731-5.380103.156999-5.319105.164809c-.898217.028877-1.775803.057689-2.604593.085496l-2.594355.089104c-1.254274.044135-2.500897.086078-3.803353.127823l-3.66556.111757c-.593736.017157-1.185717.033804-1.840823.051663l-3.571084.091784c-.577845.013912-1.154002.027326-1.794819.041681l-3.478946.072399c-.562346.010768-1.123069.021051-1.749967.031982l-3.389141.0536c-1.667884.023548-3.321303.042714-5.030736.058101l-3.158363.023007-.116995.000682-3.06742.013752h-4.938314l-2.994365-.021029-2.997712-.026337c-.481974-.005123-.962706-.010659-1.517226-.017609l-2.924162-.041833c-.469121-.007588-.937067-.015578-1.479866-.025406l-2.748486-.054627-.150537-.003275-2.674799-.063236-.151558-.00387-2.626719-.072061-.152452-.004473-2.683022-.083922c-.432996-.014379-.865023-.029124-1.374269-.047051l-2.536638-.093885-.154056-.005999-2.57156-.105182c-.414523-.017763-.828195-.035873-1.319723-.057926l-2.428745-.113375-.154615-.007518-2.466572-.124788c-.397207-.020872-.793683-.042074-1.277444-.068488l-.159615-.00911-1.864116-.0227c-81.748045-1.140999-151.120407-7.164323-208.293682-16.512924l-1.72879-.284308c-37.636199-6.224974-68.070333-13.812089-78.727409-18.25405-35.704722-14.882037-63.771623-35.336381-84.564758-61.025895-18.0861633-22.345103-30.2887433-47.640249-38.2766574-76.352571-5.736698-20.620392-8.6009034-38.699758-11.9246522-68.793078l-.4903024-4.49242-.2371518-2.201236c-1.2065265-11.228987-2.2661891-22.8804-3.1724948-34.89121l-41.4298371-4.341708c-4.6568482-.487911-8.3516345-4.141815-8.89132789-8.792946l-3.66746038-31.606537c-.71103538-6.127774 4.24146277-11.431603 10.40352817-11.141556l40.6419826 1.912281c-1.3836385-39.63592-1.2349046-81.801249.6338538-124.674458l-23.9383697.000324c-5.5228475 0-10-4.477152-10-10v-61.83461c0-5.522848 4.4771525-10 10-10l29.605136-.000236c.9147084-9.550028 1.9199536-19.078117 3.0177857-28.56437 9.073497-78.40314 42.8385184-137.147053 101.9227584-172.169616 7.499181-4.445188 23.908232-11.2808 34.392294-14.13846 36.026474-9.819801 76.032947-18.5747193 109.121663-22.379163.070843-.0081453 3.336938-.3851362 6.723807-.775396l.635703-.0732424c2.436531-.280693 4.836188-.55676 6.057393-.6961728 65.363285-7.4618689 120.199278-10.0937541 227.966509-8.3962067zm-.630001 39.9950389-1.680403-.026122c-46.467555 1.296181-90.820611 5.154885-133.057828 11.591829l-1.431275.351096-1.548127.386538-2.240244.570169-1.521525.395774-1.494715.396829-.908132.245636-1.311149.361828-1.637427.465977-.692146.202811-.673249.201498-.621841.190389-.543668.170571-1.401328.474031-2.549351 1.108723-1.304979.581121c-60.936867 27.535242-94.140976 81.240464-102.763557 158.843495-14.446506 130.018228-10.93199 252.435915-3.162591 327.749581l.235637 2.278051.483683 4.615573c4.322873 40.765493 10.341978 89.259934 41.477682 129.326052 21.24884 27.34348 54.526055 50.289936 106.559841 64.288684l2.986005.813041.935223.26081.762617.099015 2.611395.332495 3.547677.439361 2.689874.322417 1.786039.208464 3.715239.418359 1.850812.200339 1.879826.197698 2.900021.293368 1.939262.188143 1.975709.184922 2.002897.180456 2.031338.175767 2.06103.17085 2.091964.165701 2.124134.160318 2.157533.154697 2.192154.148836 2.227989.142732 2.265029.136379 2.328579.131203c.370496.020144.742441.040024 1.115854.059635l2.388028.120672 2.429379.113343c.387541.017316.776634.034342 1.167299.051073l2.493237.101846 2.5373.093857c.405918.014221.813495.028125 1.22275.041709l2.605491.081376 2.627405.07204 2.675497.063217 2.749204.054611c.442234.007944.886322.015523 1.332285.022733l2.849197.040669c.455234.005644.912389.010907 1.371486.015784l2.923849.025606 2.912429.019488h4.497318l3.06822-.013369 3.159188-.023c1.565501-.014141 3.151534-.032482 4.758654-.05516l3.321483-.052559c.536952-.009406 1.076211-.019289 1.617798-.029654l3.412761-.071038c.552747-.012422 1.107872-.025338 1.665393-.038754l3.506399-.090124c.568945-.015547 1.140337-.031605 1.714194-.048179l3.602393-.109821c1.195189-.038331 2.400856-.078865 3.617173-.121641l2.628484-.09024c.89379-.029984 1.791562-.059422 2.693229-.088393l5.366803-.166222 5.453268-.159111 13.888368-.388957 8.512228-.246944 5.744035-.178159c75.817758-2.432701 169.597487-7.52198 232.823442-62.254754 4.924115-4.262657 9.574869-8.841367 13.956654-13.73425 39.948354-44.835349 57.442543-115.917835 55.83449-211.810412.001932-1.060943.003624-2.118267.005076-3.171973l.006595-9.413058-.002828-6.154787-.015083-9.079089-.01726-5.93703-.023039-5.851418-.028809-5.763343-.034559-5.672385-.062717-8.353318-.04893-5.448873-.084337-8.023025-.063334-5.231092-.069075-5.142409-.114502-7.556427-.127427-7.357958-.091922-4.784399-.148912-7.025827-.16179-6.826941-.114803-4.433058-.120604-4.348454-.126132-4.254423-.2002-6.226993-.21295-6.027189-.148654-3.897131-.154463-3.81305-.160044-3.723371-.166217-3.64709c-.027631-.588786-.055492-1.174092-.083583-1.755917l-.174554-3.511995-.179359-3.408137-.1848-3.317608-.190196-3.226833-.195542-3.135785-.20208-3.063411c-.033032-.486682-.066286-.969992-.099765-1.449927l-.209989-2.925725-.215392-2.836442c-.03487-.446193-.069958-.889079-.105266-1.328657l-.222991-2.697156-.225994-2.581749-.233199-2.51504c-.03703-.387707-.074269-.77224-.111719-1.153597l-.243153-2.402865c-.037733-.361768-.075669-.72044-.113812-1.076014l-.250536-2.264888c-.03824-.335137-.076679-.667273-.115317-.996408l-.257556-2.125656c-.122019-.975308-.245925-1.921499-.371804-2.838564l-.375131-2.690249c-5.892652-41.59853-22.2711-139.786389-106.057783-181.239016-12.695685-6.281064-78.429184-27.532372-181.77317-29.882421-22.049402-.501405-43.66085-.473135-64.838708.085748zm-170.59987 3.137609-1.788424.131646c-25.271289 1.875441-44.662439 4.214986-63.796135 6.414922-37.135833 4.26977-81.445808 15.31122-103.171533 21.23304-7.983428 2.176058-20.90539 7.815872-24.515138 9.955574-48.158044 28.54599-74.962454 76.499928-82.584228 142.358886-14.4644231 124.985567-10.9455484 242.664791-3.166514 315.063264l.235929 2.189873.484284 4.436917c4.328234 39.187569 10.354803 85.804918 41.529122 124.320184 15.596846 19.2696 37.66619 36.267552 68.862187 49.270313 3.461504 1.442784 58.385434 19.083036 172.299897 27.609463-28.513721-13.721792-50.992845-31.575127-67.928278-53.368019-16.139123-20.768184-27.079513-44.38933-34.324072-71.511818-5.337707-19.983534-8.054894-37.847641-11.25252-68.001994l-.486462-4.642254-.236201-2.283512c-9.634931-93.397437-9.730637-215.821053 3.179338-332.010537 9.10798-81.971611 44.461346-139.892212 106.658748-171.165948zm195.620874 409.861827v53.93503l-106.901408 1.972311v-55.341402zm203.112677-1.075284v51.262924l-106.901409 1.972311v-52.669296zm-753.4643722 20.401076 1.387 11.953 30.0159763 3.144903c-.0287825-.485401-.057324-.971301-.0856242-1.457694l-5.8183521-12.440209zm629.3198522-280.766802v120h-61.73913v-120zm-594.9789933 75.639824-17.8232158-.000426v41.834l14.9331032.000487c.7783518-13.920749 1.7396076-27.885967 2.8901126-41.834061z"/></svg>