<svg height="960" viewBox="0 0 960 960" width="960" xmlns="http://www.w3.org/2000/svg"><path d="m107.09718 4.91408495.134293.009629c14.324736 1.0513384 27.197796 6.01729775 37.132165 14.55489785l.438993.3821712 10.032343 1.1889804c254.933846 30.2272745 360.474027 42.7410778 463.711523 54.9818539l10.321522 1.2238135c65.390032 7.7532366 131.823092 15.6301442 236.665738 28.0612412l2.449874.290111.021589-.00783c8.00981-2.917551 15.708527-4.691592 23.555226-5.090779l.872488-.038684c13.861445-.5239369 27.206418 3.466113 38.157221 12.627889 9.953736 8.327599 16.150683 19.330412 19.591058 32.117923 2.513865 9.343774 3.597413 19.818338 3.597413 31.9663 0 28.445052-8.115611 51.236641-27.484093 65.447604-6.77028 4.967463-14.272527 8.270352-22.167229 10.03216l-.579673.125417.000906 659.089642c0 21.772579-17.401243 39.502127-39.088144 39.989713l-.658477.009484-773.1140576 4.898178c-22.1899609.139745-40.2533784-17.809611-40.2533784-40.000017l.0001511-726.197-.3869202-.181229c-11.6708964-5.581354-20.2122031-16.104408-23.2962494-28.754663l-.1204458-.507138c-.7606526-3.288637-1.1303846-6.618102-1.1303846-9.928108v-80.395853c0-12.4512348 5.154192-23.9552337 13.5015652-32.3326987l.6767505-.6833481c9.4426907-9.4841995 18.5564357-16.9453821 27.7430748-22.3950133 12.6070312-7.47865133 25.7516575-11.45943069 39.6751584-10.48464695zm-16.6635489 162.45477405.0008489 749.404924 773.114057-4.897358-.000906-680.080566-728.049001-60.670571-1.701464-.140823c-2.046635.460644-4.115069.252606-5.953313-.496398zm85.6602019-103.5182607-.000427.0329851c.566959 4.0421379 1.029967 8.322688 1.366426 12.5636169l.093999 1.2284173c.467121 6.3384904.645275 12.5277197.458461 17.632656-.428981 11.7224004-3.47616 22.4967804-7.981084 33.7760474-3.194771 7.977409-4.797957 11.622039-7.678978 16.737427-1.417485 2.516812-2.91554 4.886196-4.504663 7.096333l706.172064 58.847778 12.668546.000872c19.7295 6.597099 37.090449 1.230371 37.090449-34.585129 0-35.815499-11.914016-42.32223-35.101917-32.828233-2.631544 1.555875-5.709586 2.124862-9.234125 1.70696-156.890138-18.602321-388.006389-46.005564-693.348751-82.2097307zm-108.7565213 2.8598305c-1.152769 1.1569247-1.8366806 2.6834463-1.8366806 4.0993632v80.395853c0 .315939.0340361.622433.1015192.914192.5189297 2.244225 2.8636498 3.165407 5.2370789 2.055393l19.5952508-9.209215.0001304.041532c16.5141456-11.92702 26.5145576-22.580242 30.0266656-31.35004 4.7069-11.784978 6.877668-23.6733591 5.345736-37.2120109-.369075-3.2588937-1.399784-10.1063109-3.068809-20.3455401-2.917713-6.8319708-9.062641-10.595703-18.434584-11.2835401-9.6428505-.6750956-21.964953 6.6694036-36.9663073 21.8940129zm76.2864493-6.7097774.026102.1757718c1.042326 6.5999843 1.717195 11.2554126 2.030221 14.0194016 1.945212 17.1910759-.806337 32.2601532-6.648876 46.8884962-3.712866 9.271104-11.101762 18.687486-22.115378 28.422699l14.141732 1.179996c5.285274-2.564899 9.834661-7.517715 13.868423-14.679848 2.30718-4.096507 3.668731-7.191811 6.535291-14.349661 3.71198-9.29393 6.240691-18.235085 6.564394-27.0806424.222471-6.0792701-.294436-15.6844738-1.322387-24.6123436-.35824-3.1113539-.764143-6.0129524-1.196354-8.5563268-3.946456-.4664941-7.908734-.9362977-11.883168-1.4075428z"/></svg>