<?xml version="1.0" encoding="UTF-8"?>
<svg width="960px" height="960px" viewBox="0 0 960 960" version="1.1" xmlns="http://www.w3.org/2000/svg" xmlns:xlink="http://www.w3.org/1999/xlink">
    <title>com.evehome / driver / motionblinds/assets/pair</title>
    <style type="text/css">
        #pair {
            animation: fillpulse 15s infinite;
        }
        
        @keyframes fillpulse {
            0%, 8%, 20%, 92%, 100% {
                fill: rgba(255,255,255,0);
            }
            10%, 25%, 90% {
                fill: #0078CC;
            }
        }
    </style>
    <g id="com.evehome-/-driver-/-motionblinds" stroke="none" stroke-width="1" fill="none" fill-rule="evenodd">
        <path d="M511,268 C513.761424,268 516,270.238576 516,273 L516,837 C516,839.761424 513.761424,842 511,842 L340,842 C337.238576,842 335,839.761424 335,837 L335,273 C335,270.238576 337.238576,268 340,268 L511,268 Z M506,278 L345,278 L345,832 L506,832 L506,278 Z" id="Rectangle" fill="#000000" fill-rule="nonzero"></path>
        <path d="M340,239 C342.761424,239 345,241.238576 345,244 L345,868 C345,870.761424 342.761424,873 340,873 L169,873 C166.238576,873 164,870.761424 164,868 L164,244 C164,241.238576 166.238576,239 169,239 L340,239 Z M335,249 L174,249 L174,863 L335,863 L335,249 Z" id="Rectangle" fill="#000000" fill-rule="nonzero"></path>
        <path d="M961,239 C963.761424,239 966,241.238576 966,244 L966,868 C966,870.761424 963.761424,873 961,873 L511,873 C508.238576,873 506,870.761424 506,868 L506,244 C506,241.238576 508.238576,239 511,239 L961,239 Z M956,249 L516,249 L516,863 L956,863 L956,249 Z" id="Rectangle" fill="#000000" fill-rule="nonzero"></path>
        <path d="M340,234 C345.522847,234 350,238.477153 350,244 L350,263 L501,263 L501,244 C501,238.57076 505.326671,234.152068 510.720095,234 L511,234 L961,234 C966.522847,234 971,238.477153 971,244 L971,868 C971,873.522847 966.522847,878 961,878 L511,878 C505.477153,878 501,873.522847 501,868 L501,847 L350,847 L350,868 C350,873.42924 345.673329,877.847932 340.279905,878 L340,878 L169,878 C163.477153,878 159,873.522847 159,868 L159,244 C159,238.477153 163.477153,234 169,234 L340,234 Z M951,254 L521,254 L521,273 C521,278.42924 516.673329,282.847932 511.279905,282.996158 L511,283 L340,283 C334.477153,283 330,278.522847 330,273 L330,254 L179,254 L179,858 L330,858 L330,837 C330,831.57076 334.326671,827.152068 339.720095,827.003842 L340,827 L511,827 C516.522847,827 521,831.477153 521,837 L521,858 L951,858 L951,254 Z" id="Combined-Shape" fill="#000000" fill-rule="nonzero"></path>
        <path d="M511,449 C513.761424,449 516,451.238576 516,454 L516,604 C516,606.761424 513.761424,609 511,609 L340,609 C337.238576,609 335,606.761424 335,604 L335,454 C335,451.238576 337.238576,449 340,449 L511,449 Z M506,459 L345,459 L345,599 L506,599 L506,459 Z" id="Rectangle" fill="#000000" fill-rule="nonzero"></path>
        <path d="M425.5,319 C438.188968,319 448.47541,329.286441 448.47541,341.97541 L448.47541,408.02459 C448.47541,420.713559 438.188968,431 425.5,431 C412.811032,431 402.52459,420.713559 402.52459,408.02459 L402.52459,341.97541 C402.52459,329.286441 412.811032,319 425.5,319 Z M425.5,329 C418.333879,329 412.52459,334.809289 412.52459,341.97541 L412.52459,408.02459 C412.52459,415.190711 418.333879,421 425.5,421 C432.666121,421 438.47541,415.190711 438.47541,408.02459 L438.47541,341.97541 C438.47541,334.809289 432.666121,329 425.5,329 Z" id="Rectangle" fill="#000000" fill-rule="nonzero"></path>
        <path d="M487,599 C489.761424,599 492,601.238576 492,604 L492,807 C492,809.761424 489.761424,812 487,812 L364,812 C361.238576,812 359,809.761424 359,807 L359,604 C359,601.238576 361.238576,599 364,599 L487,599 Z M482,609 L369,609 L369,802 L482,802 L482,609 Z" id="Rectangle" fill="#000000" fill-rule="nonzero"></path>
        <circle id="pair" fill="#0074CC" cx="425.973435" cy="736.820118" r="31"></circle>
        <path d="M425.973435,700.820118 C445.855686,700.820118 461.973435,716.937867 461.973435,736.820118 C461.973435,756.702369 445.855686,772.820118 425.973435,772.820118 C406.091184,772.820118 389.973435,756.702369 389.973435,736.820118 C389.973435,716.937867 406.091184,700.820118 425.973435,700.820118 Z M425.973435,710.820118 C411.614031,710.820118 399.973435,722.460714 399.973435,736.820118 C399.973435,751.179521 411.614031,762.820118 425.973435,762.820118 C440.332838,762.820118 451.973435,751.179521 451.973435,736.820118 C451.973435,722.460714 440.332838,710.820118 425.973435,710.820118 Z" id="Oval" fill="#000000" fill-rule="nonzero"></path>
    </g>
</svg>