<svg height="960" viewBox="0 0 960 960" width="960" xmlns="http://www.w3.org/2000/svg"><path d="m268.626841 88.1882921-.481986-.0096443.279523-.000135c25.022705.0189267 59.91238.9449194 104.87354 2.7738406l1.365542.0556982 1.388565.056945c49.545974 2.0373639 83.542203 13.2829624 110.18944 39.8237794 27.32263 27.213513 42.113157 66.701541 50.099245 125.975747.076633.568786.152404 1.137485.227334 1.706426l.22229 1.707876c3.516968 27.348132 5.146467 56.010087 7.272286 122.317307.953889 29.753117 1.411738 43.346736 1.866085 54.763418l.029957.749742.029978.744323.030031.739796.030115.736158c.005028.122439.010061.244764.015099.366994l.030919.747301.033438.801958c.005591.133585.011193.26715.016805.400718l.067919 1.604564.047246 1.102412.048239 1.113773c.077364 1.777043.118809 11.76326.130465 23.617659v11.422813c-.000309.343153-.00064.686225-.000994 1.029081l-.001128 1.02779c-.017523 15.060841-.078073 29.444937-.175805 31.713118l-.047632 1.111295c-.023437.550732-.023437.550732-.046313 1.0922l-.046641 1.112307c-.015899.381301-.031707.762398-.047445 1.143885l-.031389.763671c-.014871.363158-.029692.727026-.044481 1.092113l-.029538.731952c-.029505.733879-.058927 1.473995-.088408 2.224422l-.029507.754016c-.428283 10.987447-.879043 24.428643-1.787015 52.749553-2.125819 66.30722-3.755318 94.969174-7.272286 122.317307l-.22229 1.707876c-.07493.568941-.150701 1.13764-.227334 1.706426-7.986088 59.274206-22.776615 98.762233-50.099245 125.975746-26.647237 26.540818-60.643466 37.786416-110.18944 39.82378-46.29548 1.903701-82.103757 2.867408-107.638757 2.886492l-.325413-.000143-1.667047.03427c-74.083257 1.432123-123.89831-1.800231-153.983827-11.004425l-.905648-.280744-.169925-.053791-.747965-.238606-.172403-.055428c-15.7943893-5.11743-29.8269628-12.483411-42.6741743-22.933437-19.563491-15.913101-33.5922149-37.141708-41.2119554-62.693622-14.1149755-47.33293-21.84405546-136.866629-21.84405546-233.380977v-123.07848c0-96.514349 7.72907996-186.048047 21.84405546-233.380977 7.6197405-25.551914 21.6484644-46.780521 41.2119554-62.693623 12.8472115-10.450025 26.879785-17.816006 42.6741743-22.9334362 30.206321-9.786939 81.257267-13.1643916 158.185801-11.5890797zm-47.245591 39.7099379-1.009218.011111c-46.353358.553188-78.774424 3.820381-97.601868 9.92053-10.548935 3.417887-20.414357 8.307746-29.7626237 15.911702-12.8899208 10.484766-22.6309345 24.684365-28.1207063 43.093677-13.4320306 45.042754-20.1759792 134.933165-20.1759792 221.950158v123.07848c0 87.016993 6.7439486 176.907404 20.1759792 221.950158 5.4897718 18.409311 15.2307855 32.608911 28.1207063 43.093677 9.3482667 7.603956 19.2136887 12.493815 29.7626237 15.911702l.747965.238606c19.071162 5.990353 51.580687 9.182564 97.861293 9.693495-4.854946-3.647388-9.369088-7.934734-13.600495-12.956415-11.376408-13.50111-19.274796-30.939149-23.574541-51.976053-9.058029-44.317251-14.233723-131.792104-14.233723-225.95517v-123.07848c0-94.163067 5.175694-181.637919 14.233723-225.95517 4.299745-21.036904 12.198133-38.474943 23.574541-51.976053 4.231407-5.021681 8.745549-9.309027 13.602323-12.955955zm285.055781 354.971763.000581-.993029c.000091-.165594.000179-.33122.000263-.496863l.000873-1.987408c.000061-.165502.000118-.330953.000173-.496336l.000005-8.290655c-.000026-.163947-.000058-.327513-.000097-.490679l-.000779-1.937621c-.00009-.15967-.000187-.318866-.00029-.477569l-.000696-.946146c-.007971-9.712575-.04018-17.384807-.090761-18.546647l-.048624-1.122636-.048023-1.120442c-.024828-.582386-.049441-1.164647-.073885-1.747976l-.036543-.875944c-.024285-.584696-.048423-1.171056-.07246-1.760274l-.035983-.886118c-.52681-13.032217-1.01533-27.736232-1.947624-56.815771-2.078733-64.838548-3.647195-93.93511-7.38427-121.672364-6.889172-51.132699-18.759198-83.129658-38.685049-102.975932-18.838273-18.763041-44.090118-26.573473-83.605255-28.198362l-1.384141-.056763c-31.083817-1.271278-57.303649-2.109254-78.669666-2.513567-23.350652 1.250578-40.268157 4.35147-50.882261 9.36898-7.230241 3.417887-13.992002 8.307746-20.399305 15.911702-8.834752 10.484766-15.511244 24.684365-19.273934 43.093677-9.206315 45.042754-13.828617 134.933165-13.828617 221.950158v123.07848c0 87.016993 4.622302 176.907404 13.828617 221.950158 3.76269 18.409311 10.439182 32.608911 19.273934 43.093677 6.407303 7.603956 13.169064 12.493815 20.399305 15.911702l.512655.238606c10.642328 4.877168 27.390156 7.899522 50.366557 9.130132 21.366616-.403993 47.587446-1.241988 78.672715-2.513325l1.384141-.056764c39.515137-1.624889 64.766982-9.435321 83.605255-28.198361 19.925851-19.846274 31.795877-51.843234 38.685049-102.975932 3.737075-27.737254 5.305537-56.833816 7.38427-121.672364.859759-26.817063 1.342111-41.408501 1.82513-53.73759l.031852-.809735c.021241-.537778.042499-1.071608.063807-1.602337l.032003-.793872c.005341-.131959.010686-.263751.016036-.395389l.034216-.838275c.022859-.557624.045821-1.112964.068923-1.667041l.047035-1.121711c.01575-.373536.031578-.746809.047493-1.120134l.048023-1.120442c.068617-1.592464.114248-13.081212.134128-26.004705l.001442-.97182c.001162-.811872.002223-1.628521.003183-2.447883l.000281-.774525c.000109-.165243.000215-.330571.000318-.495965zm265.344624-177.869443c3.63748.008115 7.328866.021375 12.437152.044447 5.346864.024149 7.86281.035246 9.643023.040246l.290249.000778.286176.00069.139281.000305.538555.00098.065833.000098.850102.000844.132761.000069.835213.000171c21.139986 0 44.215889 1.262727 69.302629 3.775217l1.826595.184922c45.992495 4.70196 82.351492 41.051527 86.813099 86.979108 2.704874 27.833328 4.057677 55.672811 4.057677 83.513979 0 26.989117-1.271268 53.976142-3.819553 81.023602l-.280991 2.929343c-4.491273 45.98262-40.949755 82.337405-87.007609 86.950429-16.604657 1.663154-33.21319 2.74205-49.823906 3.236372l-2.614941.07085-.53546.057569c-1.074128.104424-2.16067.166357-3.257919.184101l-.659621.00533h-104c-2.21147 0-4.380975-.17945-6.494761-.524575l-.444239-.076425-.520183-.020106c-15.347298-.638137-30.70607-1.767608-46.113506-3.391693l-3.082147-.331413-2.740265-.305117c-45.64614-5.156115-81.964921-41.019473-86.49483-86.304401-2.73989-27.366982-4.110069-54.720004-4.110069-82.066146 0-26.232131 1.260818-52.47 3.788422-78.785139l.278213-2.846836c4.452219-44.749708 39.967097-80.3743 84.952014-86.167843l.254333-.031927.810899-.099156.264235-.031419c.591449-.068331 5.602436-.653919 10.426971-1.214794l.779995-.09065c3.237108-.376094 6.275429-.72753 7.694145-.887127 6.458755-.726571 11.487099-1.231508 16.459219-1.633337.041698-.003368.041698-.003368.172468-.013808l1.52026-.118992c3.196463-.243134 6.361323-.440075 9.601577-.595264l.728249-.032832.16733-.036035c1.996488-.413632 4.026034-.751547 6.089091-1.017052l1.034324-.126733c.091651-.010669.183339-.021021.275062-.031055l.810899-.088712c.094097-.010295.18823-.020255.282398-.029881 11.321442-1.15729 25.989754-1.7536 44.344526-1.986792l2.075843-.024566c5.219833-.057387 10.665097-.085405 16.54009-.089624zm25.747401 40.571569c-20.169788 0-42.453361 1.255221-66.850717 3.765665l-.808355.089019c-26.618626 3.119158-47.518706 24.393727-50.100199 51.143504l-.270417 2.854343c-2.391708 25.688869-3.587562 51.377737-3.587562 77.066606 0 26.780648 1.299661 53.561296 3.898826 80.34196 2.624836 27.051628 23.981421 48.488518 51.023008 51.214866l2.66782.263571c6.949189.672639 13.898377 1.235772 20.847566 1.689398l56.650974-.001051.000601-.151098c17.634905-.36963 35.26981-1.437627 52.904717-3.203973 27.126691-2.716933 48.550488-24.079796 51.183585-51.038008l.274228-2.859462c2.424579-25.735018 3.636869-51.470037 3.636869-77.205055 0-26.548313-1.290124-53.096625-3.870121-79.644961-.271986-2.799813-.746684-5.539437-1.40945-8.204231-5.897221-22.723418-25.371456-39.888679-49.340663-42.355358l-1.781392-.181521c-23.701702-2.389476-45.391475-3.584214-65.069318-3.584214zm-112.934888 3.600547-.421777.036031c-9.173437.789905-18.599807 1.969654-32.233498 3.544794l-.8109.099156c-26.702399 3.438964-47.668255 24.427103-50.257872 50.455613l-.271269 2.776403c-2.399235 24.979214-3.598852 49.940852-3.598852 74.895461 0 26.015181 1.303752 52.038328 3.911097 78.081401 2.633097 26.32274 24.056894 47.477734 51.183585 50.541921l2.676216.297935c10.080425 1.105218 20.160849 1.987609 30.241274 2.646384-13.898452-12.525775-23.193169-30.048193-25.108006-49.782552-2.66145-27.422426-3.99236-54.84782-3.99236-82.273957 0-26.308552 1.224654-52.616094 3.676716-78.952938l.27375-2.88919c1.887361-19.557093 11.02831-36.961234 24.731896-49.476462z"/></svg>