<?xml version="1.0" encoding="UTF-8"?>
<svg width="960px" height="960px" viewBox="0 0 960 960" version="1.1" xmlns="http://www.w3.org/2000/svg" xmlns:xlink="http://www.w3.org/1999/xlink">
    <title>com.evehome / driver / door_window_sensor/assets/pair</title>
    <style type="text/css">
        #pair {
            animation: fillpulse 12s infinite;
        }
        
        @keyframes fillpulse {
            0%, 8%, 92%, 100% {
                fill: rgba(255,255,255,0);
            }
            10%, 90% {
                fill: #0078CC;
            }
        }
    </style>
    <g id="com.evehome-/-driver-/-door_window_sensor" stroke="none" stroke-width="1" fill="none" fill-rule="evenodd">
        <path d="M474.039549,25.6587375 L473.824298,25.6535311 L474.277566,25.6524432 C496.369298,25.6768228 527.375314,26.8770765 567.398146,29.2517336 L568.678532,29.3279193 L569.921204,29.4022727 C609.065327,31.7507299 634.10121,43.8336129 652.523274,70.6040983 C671.516365,98.2043866 682.578589,141.294745 688.929175,210.065102 C692.180351,245.272018 693.637442,281.073313 695.59009,369.934978 C696.542101,413.259366 696.945913,430.522718 697.408367,446.831751 L697.46907,448.955667 C697.489448,449.663211 697.509987,450.371015 697.530737,451.081141 L697.573704,452.543793 L697.617257,454.010888 C697.671744,455.836918 697.699629,468.5711 697.705384,483.724576 L697.705384,486.073822 C697.705384,486.468163 697.705384,486.863808 697.705384,487.260614 L697.705384,489.654242 C697.705384,490.055121 697.705384,490.456875 697.705384,490.859361 L697.705384,494.497634 C697.705384,495.308814 697.705384,496.121204 697.705384,496.93366 L697.705384,499.37008 C697.689872,518.844704 697.644828,537.697768 697.573796,540.102981 L697.530783,541.567158 C697.516514,542.055464 697.502355,542.542706 697.488338,543.027707 L697.446211,544.4935 L697.417471,545.502648 C697.407925,545.839025 697.398411,546.175474 697.388923,546.512226 L697.346387,548.030439 C696.908298,563.755943 696.509188,580.888319 695.59009,622.71489 C693.637442,711.576555 692.180351,747.37785 688.929175,782.584766 C682.578589,851.355123 671.516365,894.445482 652.523274,922.04577 C634.10121,948.816255 609.065327,960.899138 569.921204,963.247596 C528.25851,965.747155 496.186075,966.997804 473.592714,966.997804 L473.800298,966.997531 L472.085937,967.04787 C407.938792,968.857099 364.908855,964.783631 340.869296,954.076397 L340.146635,953.749904 L339.421903,953.412393 C328.029053,948.026754 318.226349,940.519259 309.362434,929.999885 C296.320103,914.521717 287.107685,894.182567 281.998249,869.184171 C270.42484,812.56019 263.705298,698.992644 263.705298,576.829678 C263.705298,576.722003 263.705298,576.613233 263.705298,576.503352 L263.705298,550.498084 C263.705298,550.3819 263.705298,550.264947 263.705298,550.147268 L263.705298,531.502754 C263.705298,531.424863 263.705298,531.34845 263.705298,531.273556 L263.705298,511.096191 C263.705298,510.77566 263.705298,510.456452 263.705298,510.138495 L263.705298,484.087124 C263.705298,483.711814 263.705298,483.337926 263.705298,482.96546 L263.705298,449.935297 C263.705298,449.660382 263.705298,449.386913 263.705298,449.114891 L263.705298,434.535741 C263.705298,434.321885 263.705298,434.109489 263.705298,433.898556 L263.705298,426.937666 C263.705298,426.761917 263.705298,426.587639 263.705298,426.414831 L263.705298,422.106962 C263.705298,421.960688 263.705298,421.81589 263.705298,421.672571 L263.705298,418.880353 L263.705298,418.517019 L263.705298,415.82019 C263.705298,293.657224 270.42484,180.089678 281.998249,123.465697 C287.107685,98.4673016 296.320103,78.1281513 309.362434,62.6499834 C318.226349,52.1306087 328.029053,44.6231144 339.421903,39.2374747 C363.34734,27.9274183 407.459045,23.6695211 474.039549,25.6587375 Z M473.509745,946.998149 L473.584633,946.997527 L473.695298,946.997531 L474.272848,946.997418 C496.13303,946.972695 527.198573,945.761262 567.462222,943.358953 L568.723455,943.283493 C602.119873,941.27987 621.418926,931.965711 636.047424,910.707941 C652.622588,886.621325 662.952651,846.382931 669.013909,780.745694 L669.203524,778.668342 C672.266815,744.707687 673.691089,708.915469 675.594917,622.275515 C676.584179,577.255909 676.971903,560.80468 677.45442,543.920557 L677.496639,542.451541 C677.510764,541.962804 677.524985,541.473439 677.539361,540.981445 L677.582466,539.514141 C677.64797,537.296122 677.690097,518.631556 677.705451,499.34639 L677.705451,496.933657 C677.705451,496.129098 677.705451,495.324607 677.705451,494.521328 L677.705451,492.116272 C677.705451,491.716417 677.705451,491.317152 677.705451,490.918618 L677.705451,486.180531 C677.705451,485.790146 677.705451,485.401066 677.705451,485.013434 L677.705451,482.70616 C677.699745,468.217966 677.674684,456.233772 677.626109,454.605879 L677.58242,453.134169 L677.539315,451.666854 L677.508227,450.599212 C677.482444,449.710567 677.456953,448.824025 677.431657,447.935548 L677.40139,446.868189 C676.943575,430.657996 676.537556,413.272219 675.594917,370.374353 C673.652235,281.966237 672.208881,246.502452 669.013909,211.904174 C662.952651,146.266937 652.622588,106.028543 636.047424,81.9419267 C621.418926,60.6841574 602.119873,51.3699983 568.725064,49.3664718 L567.485618,49.2923114 C527.200623,46.8884722 496.121636,45.6765616 474.273534,45.6524347 L474.000298,45.6515311 L473.941148,45.6541161 L473.726298,45.6525311 L473.674605,45.6528541 L473.547148,45.6523999 L473.473835,45.6509791 L473.442278,45.6498172 C409.89852,43.7513293 368.144823,47.7816189 347.969403,57.3189638 C339.156882,61.4848278 331.659399,67.2268466 324.656721,75.5373716 C313.891246,88.31345 306.06482,105.59261 301.593143,127.470709 C290.361455,182.42279 283.705297,294.919058 283.705297,415.82019 L283.705297,418.513467 C283.705297,418.633098 283.705297,418.754212 283.705297,418.87681 L283.705297,421.66909 C283.705297,421.812413 283.705297,421.957214 283.705297,422.103492 L283.705297,426.411473 C283.705297,426.584285 283.705297,426.758569 283.705297,426.934323 L283.705297,433.895433 C283.705297,434.106374 283.705297,434.318777 283.705297,434.532641 L283.709298,449.112403 C283.709307,449.384438 283.709317,449.65792 283.709326,449.932849 L283.709312,482.965031 C283.709303,483.337523 283.709294,483.711439 283.709284,484.086776 L283.705297,510.139375 C283.705297,510.457336 283.705297,510.776546 283.705297,511.097081 L283.705297,531.274609 C283.705297,531.349502 283.705297,531.425915 283.705297,531.503806 L283.705297,550.148277 C283.705297,550.265956 283.705297,550.382908 283.705297,550.499091 L283.705297,576.829678 C283.705297,697.73081 290.361455,810.227078 301.593143,865.179159 C306.06482,887.057259 313.891246,904.336418 324.656721,917.112497 C331.659399,925.423022 339.156882,931.16504 347.91532,935.305535 L348.532449,935.592959 C368.732303,944.850152 409.659109,948.800626 471.510816,947.056144 L473.049298,947.010531 L473.115423,947.007348 L473.361298,947.000531 L473.374411,947.001482 L473.509745,946.998149 Z" id="Path" fill="#000000" fill-rule="nonzero" transform="translate(480.7053, 496.3247) rotate(-270) translate(-480.7053, -496.3247)"></path>
        <circle id="pair" fill="#0074CC" cx="294.973435" cy="360.820118" r="19.6115056"></circle>
        <path d="M294.973435,336.208612 C308.565994,336.208612 319.584941,347.227559 319.584941,360.820118 C319.584941,374.412677 308.565994,385.431624 294.973435,385.431624 C281.380876,385.431624 270.361929,374.412677 270.361929,360.820118 C270.361929,347.227559 281.380876,336.208612 294.973435,336.208612 Z M294.973435,346.208612 C286.903723,346.208612 280.361929,352.750406 280.361929,360.820118 C280.361929,368.88983 286.903723,375.431624 294.973435,375.431624 C303.043147,375.431624 309.584941,368.88983 309.584941,360.820118 C309.584941,352.750406 303.043147,346.208612 294.973435,346.208612 Z" id="Oval" fill="#000000" fill-rule="nonzero"></path>
        <path d="M355.153618,72.5118388 C374.454821,63.3877546 409.812405,60.6655884 471.038457,62.3916593 L473.293012,62.4580532 L474.268774,62.4571114 C495.708046,62.4817856 525.914378,63.659296 565.226002,65.9920357 L566.48372,66.066877 L567.720472,66.1408757 C594.549389,67.7504804 610.583573,74.5755662 622.20897,91.4693036 C637.952667,114.347653 646.459848,150.360958 652.285926,213.451435 C655.460094,247.824431 656.862628,282.588222 658.799802,370.745698 C659.743819,413.706277 660.13176,430.274577 660.582462,446.394159 L660.614959,447.551164 C660.647519,448.705215 660.680439,449.856453 660.713964,451.013624 L660.747437,452.164024 L660.790741,453.638066 L660.83446,455.11076 C660.869546,456.286618 660.888,461.866723 660.898073,472.219512 L660.898975,473.184967 C660.899039,473.258354 660.899097,473.324403 660.89915,473.384593 L660.899924,474.295076 C660.900006,474.396474 660.900103,474.515882 660.900224,474.665142 L660.900992,475.671536 C660.901028,475.722306 660.901058,475.762923 660.901083,475.797458 L660.901357,476.180612 L660.905159,477.208053 C660.905159,477.288836 660.905159,477.358356 660.905159,477.439602 L660.905159,501.141795 C660.905159,501.263618 660.905159,501.347093 660.905159,501.421178 L660.901275,502.673037 C660.900866,503.290244 660.900435,503.901303 660.899984,504.506083 L660.899052,505.707233 C660.883862,524.591649 660.847579,537.09164 660.790496,539.024526 L660.747314,540.49448 C660.732903,540.987648 660.718631,541.478791 660.704358,541.972668 L660.662061,543.444401 C660.63308,544.458476 660.604436,545.47123 660.575977,546.488897 L660.547574,547.508434 C660.11285,563.173512 659.710105,580.482292 658.799802,621.908604 C656.862628,710.06608 655.460094,744.829871 652.285926,779.202867 C646.459848,842.293344 637.952667,878.306649 622.20897,901.184998 C610.583573,918.078736 594.549389,924.903821 567.720472,926.513426 C527.198394,928.944554 496.172459,930.17149 474.278935,930.197179 L473.227012,930.198053 L471.033584,930.262784 C411.164691,931.950627 375.86576,929.326378 356.144417,920.593513 L355.551559,920.327009 C348.554922,917.009321 342.814891,912.584501 337.509062,906.287734 C328.316862,895.378763 321.892883,880.576667 318.058518,861.816677 C306.888363,807.165654 300.511012,697.069087 300.511012,576.832763 L300.511012,522.11264 L300.511012,520.217853 L300.511012,498.911874 L300.511012,441.025186 L300.511012,431.212331 L300.511012,415.822407 C300.511012,295.585321 306.888353,185.4887 318.058518,130.837625 C321.892883,112.077635 328.316862,97.2755391 337.509062,86.3665678 C342.785059,80.1052042 348.539568,75.6384395 355.153618,72.5118388 Z M470.7505,72.3875106 C411.189069,70.708372 376.760081,73.359046 359.427368,81.5525834 C354.123647,84.0597639 349.515765,87.6364943 345.156206,92.8102619 C337.145231,102.317398 331.378783,115.604414 327.855965,132.840131 C316.857911,186.649138 310.511011,296.220216 310.511011,415.822407 L310.511011,429.941124 L310.511011,431.21051 L310.514585,441.02305 L310.514522,498.912885 L310.511011,520.218677 L310.511011,576.832763 C310.511011,696.434193 316.857921,806.005216 327.855965,859.814171 C331.378783,877.049888 337.145231,890.336904 345.156206,899.84404 C349.539686,905.046197 354.133042,908.587079 359.769497,911.260388 C377.394419,919.302819 411.86925,921.92679 470.746027,920.266921 L473.00061,920.200765 L473.140906,920.198617 L474.266712,920.197186 C495.927938,920.17177 526.778278,918.951778 567.121597,916.531375 C591.164871,915.088895 604.370061,909.467995 613.971045,895.516084 C628.448987,874.477099 636.652056,839.751184 642.328293,778.283331 C645.474192,744.216463 646.870065,709.617755 648.802216,621.688917 C649.693171,581.143062 650.098267,563.684275 650.523121,548.254811 L650.55148,547.228955 C650.589345,545.86454 650.627455,544.512462 650.666165,543.15793 L650.708508,541.684591 C650.722835,541.188846 650.737139,540.696639 650.751603,540.201625 L650.794831,538.730107 C650.847543,536.945224 650.884033,524.294606 650.899081,505.658174 L650.900002,504.473223 C650.900449,503.876813 650.900874,503.274537 650.901277,502.666547 L650.905356,501.332237 C650.905356,501.264237 650.905356,501.200159 650.905356,501.117436 L650.905356,477.51642 C650.905356,477.431809 650.905356,477.375225 650.905356,477.316762 L650.905356,477.215809 L650.901359,476.187509 L650.901086,475.804785 L650.900994,475.67901 L650.900063,474.470119 C650.900013,474.408988 650.899968,474.353835 650.899927,474.303181 L650.899154,473.393551 L650.898979,473.194122 L650.898077,472.229048 C650.888262,462.14123 650.869375,456.430045 650.838886,455.408257 L650.795099,453.93326 L650.751708,452.456272 L650.718176,451.303844 C650.68456,450.143531 650.651569,448.989771 650.618919,447.832558 L650.586387,446.674284 C650.572842,446.189872 650.559355,445.705069 650.545908,445.219174 L650.519063,444.245722 C650.094701,428.80311 649.699456,411.797254 648.802216,370.965385 C646.870065,283.036547 645.474192,248.437839 642.328293,214.370971 C636.652056,152.903117 628.448987,118.177203 613.971045,97.1382178 C604.370061,83.186307 591.164871,77.5654068 567.122403,76.1229754 L565.887264,76.0490732 C526.140243,73.6773357 495.693297,72.4817752 474.266521,72.4571069 L473.217738,72.4578414 L473.067182,72.4556796 L470.7505,72.3875106 Z" id="Path" fill="#000000" fill-rule="nonzero" transform="translate(480.7081, 496.3242) rotate(-270) translate(-480.7081, -496.3242)"></path>
        <path d="M678.192856,410.414309 C680.95428,410.414309 683.192856,412.652886 683.192856,415.414309 L683.192856,613.649529 C683.192856,616.410952 680.95428,618.649529 678.192856,618.649529 L213.877209,618.649529 C211.115785,618.649529 208.877209,616.410952 208.877209,613.649529 L208.877209,415.414309 C208.877209,412.652886 211.115785,410.414309 213.877209,410.414309 L678.192856,410.414309 Z M673.192209,420.414309 L218.877209,420.414309 L218.877209,608.649309 L673.192209,608.649309 L673.192209,420.414309 Z" id="Rectangle" fill="#000000" fill-rule="nonzero"></path>
    </g>
</svg>