<svg height="960" viewBox="0 0 960 960" width="960" xmlns="http://www.w3.org/2000/svg"><path d="m604.792134 190c102.290401 0 207.636511 7.983487 261.377362 24.171537 23.527797 7.087144 41.846564 19.781117 55.355392 36.556886 9.757808 12.117612 15.995256 24.829191 20.33489 38.358553 9.682249 30.185646 13.396545 86.682166 11.776961 171.316633l-.046739 2.378391-.000196.677955c-.021766 29.143691-1.110072 70.255022-3.262245 123.410217l-.066215 1.630963c-1.986617 48.800831-11.792993 80.82662-35.827354 105.20157-25.083014 25.438463-64.357303 40.15564-125.979981 48.542168-2.148357.29238-8.438711 1.154245-15.07343 2.063063l-1.108324.151815-.555332.076066-1.110564.152111c-6.102359.8358-12.050877 1.650072-14.920411 2.040334-13.771336 1.872928-25.484887 3.429309-37.151933 4.923412-59.341696 7.599406-110.236964 12.578676-159.711202 14.917164-41.245025 1.94952-92.330537 3.329601-139.81047 3.431283-62.849588.121723-115.174481-1.93851-151.866381-6.702354-3.611426-.468885-7.065032-1.01994-10.367126-1.650865l-.169836-.033902-.57205-.0536c-7.467022-.710393-16.3359-1.686553-26.614008-2.928314l-1.106618-.134062c-32.954989-4.003113-72.523923-11.074554-118.781282-21.211652l-1.65806-.364369c-34.4639931-7.581851-62.0916796-33.282042-72.1418784-67.108846-20.5035051-69.011788-30.7351036-143.600555-30.7351036-223.717801 0-66.691151 7.0819795-120.797308 21.5343297-162.570689l.4296514-1.229967c12.3751427-35.179847 43.8230179-60.149992 80.8919689-64.229723 67.797407-7.462311 122.393244-12.638553 163.839862-15.529671l.874188-.061306.888012-.098565c3.744242-.39923 7.629872-.703976 11.658442-.915276l1.517417-.074859c4.594484-.212471 23.111631-1.282499 43.360672-2.448098l1.352368-.077839c.451556-.025989.903833-.052016 1.356697-.078073l1.360223-.078256c.907813-.05222 1.817441-.104529 2.727815-.156859l2.439521-.140174c.853923-.049046 1.707662-.098058 2.560334-.146981l1.70366-.097712c15.599061-.894312 30.642036-1.746466 39.6949-2.216807 73.384165-3.812666 144.341726-5.943501 221.602073-5.943501zm0 40c-76.506613 0-146.789622 2.110578-219.526677 5.889624-10.003375.519724-27.554462 1.519872-45.062827 2.525876l-2.441987.140363c-.894733.051445-1.78843.102848-2.680075.154145l-1.335801.076858c-20.899449 1.202611-40.3847 2.329132-45.26308 2.554731-4.204435.194433-8.168225.505178-11.889947.929505-.295093.033645-.5909.060712-.887199.081182-6.23801.430948-12.789644.915818-19.654717 1.454609-7.860131 2.897386-14.194275 6.547473-19.526916 11.116985-16.364507 14.02266-24.886842 39.042603-27.280514 83.37107-7.12708 131.986613.303555 293.243774 15.716938 338.236519 5.996515 17.504248 12.575681 29.397219 18.233118 34.14314 7.515322 6.304466 17.974256 10.828158 37.999959 13.402119 15.635855 2.009721 34.582173 3.504022 55.821907 4.539885 63.316887 2.666074 144.8984 1.542862 219.919934-2.003164 48.242834-2.280284 98.148069-7.162696 156.518786-14.637756 11.551006-1.479243 23.166246-3.022561 36.84246-4.882553 2.894948-.393718 8.959602-1.223929 15.147287-2.07143l1.688312-.23125 1.122148-.153709c6.528058-.894214 12.675245-1.736428 14.806698-2.026508 53.674479-7.304819 85.306953-19.158394 102.891486-36.992115 15.664136-15.886112 22.722554-38.937584 24.34302-78.743991 2.198074-53.995225 3.295691-95.456418 3.295691-124.302596 0-.135132.001369-.270261.004108-.405365 1.656501-81.712013-1.83568-135.960355-9.823059-160.862026-2.955572-9.214373-7.103613-17.667854-13.400979-25.48816-8.561726-10.632273-20.115785-18.638647-35.737639-23.344329-48.790123-14.69677-151.383668-22.471659-249.840435-22.471659zm-388.848544 17.238482-.600172.056064c-29.984307 2.754003-64.357987 6.263833-103.11138 10.529333-21.7828998 2.397381-40.262579 17.070558-47.5198945 37.701385l-.3955885 1.132327c-12.7880354 36.963046-19.316555 86.840783-19.316555 149.436765 0 76.362333 9.7062721 147.12145 29.0785764 212.325782 5.9057682 19.877544 22.1405943 34.979718 42.3882046 39.434059l1.642259.3609c40.167137 8.802449 74.993221 15.203836 104.433663 19.207814-6.00306-8.249883-11.517375-19.853641-16.503928-34.409736-16.513712-48.204684-24.029442-211.308542-16.767286-345.796626 2.324382-43.045301 10.393017-71.299986 26.672101-89.978067zm401.027461 328.70845v68.48138l-97.076555 5.885585v-70.556885c0-21.859813 21.731327-40.179532 48.538278-40.913023 26.80695-.727729 48.538277 15.88616 48.538277 37.102943zm-133.357334-259.428922 34.148428 1.481284v147.750185l-34.148428.819989zm133.289549 3.250626 30.530581 1.519588v140.427407l-30.530581.694515zm206.195851-19.24232c20.928686 0 37.894737 16.966051 37.894737 37.894737 0 20.928685-16.966051 37.894736-37.894737 37.894736-20.928685 0-37.894737-16.966051-37.894737-37.894736 0-20.928686 16.966052-37.894737 37.894737-37.894737z"/></svg>